mtllib ./RecastScene_10.mtl
g floor
v 15 -9.5 -15
v -15 -9.5 -15
v 15 0.5 -15
v -15 0.5 -15
v 15 0.5 15
v -15 0.5 15
v 15 -9.5 15
v -15 -9.5 15
v 15 0.5 -15
v -15 0.5 -15
v 15 0.5 15
v -15 0.5 15
v 15 -9.5 15
v 15 -9.5 -15
v -15 -9.5 -15
v -15 -9.5 15
v -15 -9.5 -15
v -15 0.5 -15
v -15 0.5 15
v -15 -9.5 15
v 15 -9.5 15
v 15 0.5 15
v 15 0.5 -15
v 15 -9.5 -15

vn 0 0 -1
vn 0 0 -1
vn 0 0 -1
vn 0 0 -1
vn 0 1 0
vn 0 1 0
vn 0 0 1
vn 0 0 1
vn 0 1 0
vn 0 1 0
vn 0 0 1
vn 0 0 1
vn 0 -1 0
vn 0 -1 0
vn 0 -1 0
vn 0 -1 0
vn -1 0 0
vn -1 0 0
vn -1 0 0
vn -1 0 0
vn 1 0 0
vn 1 0 0
vn 1 0 0
vn 1 0 0

vt 0 0
vt 1 0
vt 0 1
vt 1 1
vt 0 1
vt 1 1
vt 0 1
vt 1 1
vt 0 0
vt 1 0
vt 0 0
vt 1 0
vt 0 0
vt 0 1
vt 1 1
vt 1 0
vt 0 0
vt 0 1
vt 1 1
vt 1 0
vt 0 0
vt 0 1
vt 1 1
vt 1 0
f 1 4 3
f 1 2 4
f 9 6 5
f 9 10 6
f 11 8 7
f 11 12 8
f 13 15 14
f 13 16 15
f 17 19 18
f 17 20 19
f 21 23 22
f 21 24 23
g wall
v 10 -0.25 0.31
v -10 -0.25 0.31
v 10 1.75 0.31
v -10 1.75 0.31
v 10 1.75 1.31
v -10 1.75 1.31
v 10 -0.25 1.31
v -10 -0.25 1.31
v 10 1.75 0.31
v -10 1.75 0.31
v 10 1.75 1.31
v -10 1.75 1.31
v 10 -0.25 1.31
v 10 -0.25 0.31
v -10 -0.25 0.31
v -10 -0.25 1.31
v -10 -0.25 0.31
v -10 1.75 0.31
v -10 1.75 1.31
v -10 -0.25 1.31
v 10 -0.25 1.31
v 10 1.75 1.31
v 10 1.75 0.31
v 10 -0.25 0.31

vn 0 0 -1
vn 0 0 -1
vn 0 0 -1
vn 0 0 -1
vn 0 1 0
vn 0 1 0
vn 0 0 1
vn 0 0 1
vn 0 1 0
vn 0 1 0
vn 0 0 1
vn 0 0 1
vn 0 -1 0
vn 0 -1 0
vn 0 -1 0
vn 0 -1 0
vn -1 0 0
vn -1 0 0
vn -1 0 0
vn -1 0 0
vn 1 0 0
vn 1 0 0
vn 1 0 0
vn 1 0 0

vt 0 0
vt 1 0
vt 0 1
vt 1 1
vt 0 1
vt 1 1
vt 0 1
vt 1 1
vt 0 0
vt 1 0
vt 0 0
vt 1 0
vt 0 0
vt 0 1
vt 1 1
vt 1 0
vt 0 0
vt 0 1
vt 1 1
vt 1 0
vt 0 0
vt 0 1
vt 1 1
vt 1 0
f 25 28 27
f 25 26 28
f 33 30 29
f 33 34 30
f 35 32 31
f 35 36 32
f 37 39 38
f 37 40 39
f 41 43 42
f 41 44 43
f 45 47 46
f 45 48 47
g wall (1)
v 6.509999 -0.25 7.010001
v 6.510001 -0.25 -7.990001
v 6.509999 1.75 7.010001
v 6.510001 1.75 -7.990001
v 5.509999 1.75 7.010001
v 5.510001 1.75 -7.990001
v 5.509999 -0.25 7.010001
v 5.510001 -0.25 -7.990001
v 6.509999 1.75 7.010001
v 6.510001 1.75 -7.990001
v 5.509999 1.75 7.010001
v 5.510001 1.75 -7.990001
v 5.509999 -0.25 7.010001
v 6.509999 -0.25 7.010001
v 6.510001 -0.25 -7.990001
v 5.510001 -0.25 -7.990001
v 6.510001 -0.25 -7.990001
v 6.510001 1.75 -7.990001
v 5.510001 1.75 -7.990001
v 5.510001 -0.25 -7.990001
v 5.509999 -0.25 7.010001
v 5.509999 1.75 7.010001
v 6.509999 1.75 7.010001
v 6.509999 -0.25 7.010001

vn 1 0 1.192093E-07
vn 1 0 1.192093E-07
vn 1 0 1.192093E-07
vn 1 0 1.192093E-07
vn 0 1 0
vn 0 1 0
vn -1 0 -1.192093E-07
vn -1 0 -1.192093E-07
vn 0 1 0
vn 0 1 0
vn -1 0 -1.192093E-07
vn -1 0 -1.192093E-07
vn 0 -1 0
vn 0 -1 0
vn 0 -1 0
vn 0 -1 0
vn 1.192093E-07 0 -1
vn 1.192093E-07 0 -1
vn 1.192093E-07 0 -1
vn 1.192093E-07 0 -1
vn -1.192093E-07 0 1
vn -1.192093E-07 0 1
vn -1.192093E-07 0 1
vn -1.192093E-07 0 1

vt 0 0
vt 1 0
vt 0 1
vt 1 1
vt 0 1
vt 1 1
vt 0 1
vt 1 1
vt 0 0
vt 1 0
vt 0 0
vt 1 0
vt 0 0
vt 0 1
vt 1 1
vt 1 0
vt 0 0
vt 0 1
vt 1 1
vt 1 0
vt 0 0
vt 0 1
vt 1 1
vt 1 0
f 49 52 51
f 49 50 52
f 57 54 53
f 57 58 54
f 59 56 55
f 59 60 56
f 61 63 62
f 61 64 63
f 65 67 66
f 65 68 67
f 69 71 70
f 69 72 71
g wall (2)
v -6.2 -0.25 -2.719999
v -6.199999 -0.25 -12.72
v -6.2 1.75 -2.719999
v -6.199999 1.75 -12.72
v -7.2 1.75 -2.719999
v -7.199999 1.75 -12.72
v -7.2 -0.25 -2.719999
v -7.199999 -0.25 -12.72
v -6.2 1.75 -2.719999
v -6.199999 1.75 -12.72
v -7.2 1.75 -2.719999
v -7.199999 1.75 -12.72
v -7.2 -0.25 -2.719999
v -6.2 -0.25 -2.719999
v -6.199999 -0.25 -12.72
v -7.199999 -0.25 -12.72
v -6.199999 -0.25 -12.72
v -6.199999 1.75 -12.72
v -7.199999 1.75 -12.72
v -7.199999 -0.25 -12.72
v -7.2 -0.25 -2.719999
v -7.2 1.75 -2.719999
v -6.2 1.75 -2.719999
v -6.2 -0.25 -2.719999

vn 1 0 1.192093E-07
vn 1 0 1.192093E-07
vn 1 0 1.192093E-07
vn 1 0 1.192093E-07
vn 0 1 0
vn 0 1 0
vn -1 0 -1.192093E-07
vn -1 0 -1.192093E-07
vn 0 1 0
vn 0 1 0
vn -1 0 -1.192093E-07
vn -1 0 -1.192093E-07
vn 0 -1 0
vn 0 -1 0
vn 0 -1 0
vn 0 -1 0
vn 1.192093E-07 0 -1
vn 1.192093E-07 0 -1
vn 1.192093E-07 0 -1
vn 1.192093E-07 0 -1
vn -1.192093E-07 0 1
vn -1.192093E-07 0 1
vn -1.192093E-07 0 1
vn -1.192093E-07 0 1

vt 0 0
vt 1 0
vt 0 1
vt 1 1
vt 0 1
vt 1 1
vt 0 1
vt 1 1
vt 0 0
vt 1 0
vt 0 0
vt 1 0
vt 0 0
vt 0 1
vt 1 1
vt 1 0
vt 0 0
vt 0 1
vt 1 1
vt 1 0
vt 0 0
vt 0 1
vt 1 1
vt 1 0
f 73 76 75
f 73 74 76
f 81 78 77
f 81 82 78
f 83 80 79
f 83 84 80
f 85 87 86
f 85 88 87
f 89 91 90
f 89 92 91
f 93 95 94
f 93 96 95
g wall (3)
v 10.92 -0.25 -7.42
v -4.08 -0.25 -7.42
v 10.92 1.75 -7.42
v -4.08 1.75 -7.42
v 10.92 1.75 -6.42
v -4.08 1.75 -6.42
v 10.92 -0.25 -6.42
v -4.08 -0.25 -6.42
v 10.92 1.75 -7.42
v -4.08 1.75 -7.42
v 10.92 1.75 -6.42
v -4.08 1.75 -6.42
v 10.92 -0.25 -6.42
v 10.92 -0.25 -7.42
v -4.08 -0.25 -7.42
v -4.08 -0.25 -6.42
v -4.08 -0.25 -7.42
v -4.08 1.75 -7.42
v -4.08 1.75 -6.42
v -4.08 -0.25 -6.42
v 10.92 -0.25 -6.42
v 10.92 1.75 -6.42
v 10.92 1.75 -7.42
v 10.92 -0.25 -7.42

vn 0 0 -1
vn 0 0 -1
vn 0 0 -1
vn 0 0 -1
vn 0 1 0
vn 0 1 0
vn 0 0 1
vn 0 0 1
vn 0 1 0
vn 0 1 0
vn 0 0 1
vn 0 0 1
vn 0 -1 0
vn 0 -1 0
vn 0 -1 0
vn 0 -1 0
vn -1 0 0
vn -1 0 0
vn -1 0 0
vn -1 0 0
vn 1 0 0
vn 1 0 0
vn 1 0 0
vn 1 0 0

vt 0 0
vt 1 0
vt 0 1
vt 1 1
vt 0 1
vt 1 1
vt 0 1
vt 1 1
vt 0 0
vt 1 0
vt 0 0
vt 1 0
vt 0 0
vt 0 1
vt 1 1
vt 1 0
vt 0 0
vt 0 1
vt 1 1
vt 1 0
vt 0 0
vt 0 1
vt 1 1
vt 1 0
f 97 100 99
f 97 98 100
f 105 102 101
f 105 106 102
f 107 104 103
f 107 108 104
f 109 111 110
f 109 112 111
f 113 115 114
f 113 116 115
f 117 119 118
f 117 120 119
g wall (3)
v 10.92 -0.25 -7.42
v -4.08 -0.25 -7.42
v 10.92 1.75 -7.42
v -4.08 1.75 -7.42
v 10.92 1.75 -6.42
v -4.08 1.75 -6.42
v 10.92 -0.25 -6.42
v -4.08 -0.25 -6.42
v 10.92 1.75 -7.42
v -4.08 1.75 -7.42
v 10.92 1.75 -6.42
v -4.08 1.75 -6.42
v 10.92 -0.25 -6.42
v 10.92 -0.25 -7.42
v -4.08 -0.25 -7.42
v -4.08 -0.25 -6.42
v -4.08 -0.25 -7.42
v -4.08 1.75 -7.42
v -4.08 1.75 -6.42
v -4.08 -0.25 -6.42
v 10.92 -0.25 -6.42
v 10.92 1.75 -6.42
v 10.92 1.75 -7.42
v 10.92 -0.25 -7.42

vn 0 0 -1
vn 0 0 -1
vn 0 0 -1
vn 0 0 -1
vn 0 1 0
vn 0 1 0
vn 0 0 1
vn 0 0 1
vn 0 1 0
vn 0 1 0
vn 0 0 1
vn 0 0 1
vn 0 -1 0
vn 0 -1 0
vn 0 -1 0
vn 0 -1 0
vn -1 0 0
vn -1 0 0
vn -1 0 0
vn -1 0 0
vn 1 0 0
vn 1 0 0
vn 1 0 0
vn 1 0 0

vt 0 0
vt 1 0
vt 0 1
vt 1 1
vt 0 1
vt 1 1
vt 0 1
vt 1 1
vt 0 0
vt 1 0
vt 0 0
vt 1 0
vt 0 0
vt 0 1
vt 1 1
vt 1 0
vt 0 0
vt 0 1
vt 1 1
vt 1 0
vt 0 0
vt 0 1
vt 1 1
vt 1 0
f 121 124 123
f 121 122 124
f 129 126 125
f 129 130 126
f 131 128 127
f 131 132 128
f 133 135 134
f 133 136 135
f 137 139 138
f 137 140 139
f 141 143 142
f 141 144 143
g floor
v 15 -9.5 -15
v -15 -9.5 -15
v 15 0.5 -15
v -15 0.5 -15
v 15 0.5 15
v -15 0.5 15
v 15 -9.5 15
v -15 -9.5 15
v 15 0.5 -15
v -15 0.5 -15
v 15 0.5 15
v -15 0.5 15
v 15 -9.5 15
v 15 -9.5 -15
v -15 -9.5 -15
v -15 -9.5 15
v -15 -9.5 -15
v -15 0.5 -15
v -15 0.5 15
v -15 -9.5 15
v 15 -9.5 15
v 15 0.5 15
v 15 0.5 -15
v 15 -9.5 -15

vn 0 0 -1
vn 0 0 -1
vn 0 0 -1
vn 0 0 -1
vn 0 1 0
vn 0 1 0
vn 0 0 1
vn 0 0 1
vn 0 1 0
vn 0 1 0
vn 0 0 1
vn 0 0 1
vn 0 -1 0
vn 0 -1 0
vn 0 -1 0
vn 0 -1 0
vn -1 0 0
vn -1 0 0
vn -1 0 0
vn -1 0 0
vn 1 0 0
vn 1 0 0
vn 1 0 0
vn 1 0 0

vt 0 0
vt 1 0
vt 0 1
vt 1 1
vt 0 1
vt 1 1
vt 0 1
vt 1 1
vt 0 0
vt 1 0
vt 0 0
vt 1 0
vt 0 0
vt 0 1
vt 1 1
vt 1 0
vt 0 0
vt 0 1
vt 1 1
vt 1 0
vt 0 0
vt 0 1
vt 1 1
vt 1 0
f 145 148 147
f 145 146 148
f 153 150 149
f 153 154 150
f 155 152 151
f 155 156 152
f 157 159 158
f 157 160 159
f 161 163 162
f 161 164 163
f 165 167 166
f 165 168 167
g wall
v 10 -0.25 0.31
v -10 -0.25 0.31
v 10 1.75 0.31
v -10 1.75 0.31
v 10 1.75 1.31
v -10 1.75 1.31
v 10 -0.25 1.31
v -10 -0.25 1.31
v 10 1.75 0.31
v -10 1.75 0.31
v 10 1.75 1.31
v -10 1.75 1.31
v 10 -0.25 1.31
v 10 -0.25 0.31
v -10 -0.25 0.31
v -10 -0.25 1.31
v -10 -0.25 0.31
v -10 1.75 0.31
v -10 1.75 1.31
v -10 -0.25 1.31
v 10 -0.25 1.31
v 10 1.75 1.31
v 10 1.75 0.31
v 10 -0.25 0.31

vn 0 0 -1
vn 0 0 -1
vn 0 0 -1
vn 0 0 -1
vn 0 1 0
vn 0 1 0
vn 0 0 1
vn 0 0 1
vn 0 1 0
vn 0 1 0
vn 0 0 1
vn 0 0 1
vn 0 -1 0
vn 0 -1 0
vn 0 -1 0
vn 0 -1 0
vn -1 0 0
vn -1 0 0
vn -1 0 0
vn -1 0 0
vn 1 0 0
vn 1 0 0
vn 1 0 0
vn 1 0 0

vt 0 0
vt 1 0
vt 0 1
vt 1 1
vt 0 1
vt 1 1
vt 0 1
vt 1 1
vt 0 0
vt 1 0
vt 0 0
vt 1 0
vt 0 0
vt 0 1
vt 1 1
vt 1 0
vt 0 0
vt 0 1
vt 1 1
vt 1 0
vt 0 0
vt 0 1
vt 1 1
vt 1 0
f 169 172 171
f 169 170 172
f 177 174 173
f 177 178 174
f 179 176 175
f 179 180 176
f 181 183 182
f 181 184 183
f 185 187 186
f 185 188 187
f 189 191 190
f 189 192 191
g wall (1)
v 6.509999 -0.25 7.010001
v 6.510001 -0.25 -7.990001
v 6.509999 1.75 7.010001
v 6.510001 1.75 -7.990001
v 5.509999 1.75 7.010001
v 5.510001 1.75 -7.990001
v 5.509999 -0.25 7.010001
v 5.510001 -0.25 -7.990001
v 6.509999 1.75 7.010001
v 6.510001 1.75 -7.990001
v 5.509999 1.75 7.010001
v 5.510001 1.75 -7.990001
v 5.509999 -0.25 7.010001
v 6.509999 -0.25 7.010001
v 6.510001 -0.25 -7.990001
v 5.510001 -0.25 -7.990001
v 6.510001 -0.25 -7.990001
v 6.510001 1.75 -7.990001
v 5.510001 1.75 -7.990001
v 5.510001 -0.25 -7.990001
v 5.509999 -0.25 7.010001
v 5.509999 1.75 7.010001
v 6.509999 1.75 7.010001
v 6.509999 -0.25 7.010001

vn 1 0 1.192093E-07
vn 1 0 1.192093E-07
vn 1 0 1.192093E-07
vn 1 0 1.192093E-07
vn 0 1 0
vn 0 1 0
vn -1 0 -1.192093E-07
vn -1 0 -1.192093E-07
vn 0 1 0
vn 0 1 0
vn -1 0 -1.192093E-07
vn -1 0 -1.192093E-07
vn 0 -1 0
vn 0 -1 0
vn 0 -1 0
vn 0 -1 0
vn 1.192093E-07 0 -1
vn 1.192093E-07 0 -1
vn 1.192093E-07 0 -1
vn 1.192093E-07 0 -1
vn -1.192093E-07 0 1
vn -1.192093E-07 0 1
vn -1.192093E-07 0 1
vn -1.192093E-07 0 1

vt 0 0
vt 1 0
vt 0 1
vt 1 1
vt 0 1
vt 1 1
vt 0 1
vt 1 1
vt 0 0
vt 1 0
vt 0 0
vt 1 0
vt 0 0
vt 0 1
vt 1 1
vt 1 0
vt 0 0
vt 0 1
vt 1 1
vt 1 0
vt 0 0
vt 0 1
vt 1 1
vt 1 0
f 193 196 195
f 193 194 196
f 201 198 197
f 201 202 198
f 203 200 199
f 203 204 200
f 205 207 206
f 205 208 207
f 209 211 210
f 209 212 211
f 213 215 214
f 213 216 215
g wall (2)
v -6.2 -0.25 -2.719999
v -6.199999 -0.25 -12.72
v -6.2 1.75 -2.719999
v -6.199999 1.75 -12.72
v -7.2 1.75 -2.719999
v -7.199999 1.75 -12.72
v -7.2 -0.25 -2.719999
v -7.199999 -0.25 -12.72
v -6.2 1.75 -2.719999
v -6.199999 1.75 -12.72
v -7.2 1.75 -2.719999
v -7.199999 1.75 -12.72
v -7.2 -0.25 -2.719999
v -6.2 -0.25 -2.719999
v -6.199999 -0.25 -12.72
v -7.199999 -0.25 -12.72
v -6.199999 -0.25 -12.72
v -6.199999 1.75 -12.72
v -7.199999 1.75 -12.72
v -7.199999 -0.25 -12.72
v -7.2 -0.25 -2.719999
v -7.2 1.75 -2.719999
v -6.2 1.75 -2.719999
v -6.2 -0.25 -2.719999

vn 1 0 1.192093E-07
vn 1 0 1.192093E-07
vn 1 0 1.192093E-07
vn 1 0 1.192093E-07
vn 0 1 0
vn 0 1 0
vn -1 0 -1.192093E-07
vn -1 0 -1.192093E-07
vn 0 1 0
vn 0 1 0
vn -1 0 -1.192093E-07
vn -1 0 -1.192093E-07
vn 0 -1 0
vn 0 -1 0
vn 0 -1 0
vn 0 -1 0
vn 1.192093E-07 0 -1
vn 1.192093E-07 0 -1
vn 1.192093E-07 0 -1
vn 1.192093E-07 0 -1
vn -1.192093E-07 0 1
vn -1.192093E-07 0 1
vn -1.192093E-07 0 1
vn -1.192093E-07 0 1

vt 0 0
vt 1 0
vt 0 1
vt 1 1
vt 0 1
vt 1 1
vt 0 1
vt 1 1
vt 0 0
vt 1 0
vt 0 0
vt 1 0
vt 0 0
vt 0 1
vt 1 1
vt 1 0
vt 0 0
vt 0 1
vt 1 1
vt 1 0
vt 0 0
vt 0 1
vt 1 1
vt 1 0
f 217 220 219
f 217 218 220
f 225 222 221
f 225 226 222
f 227 224 223
f 227 228 224
f 229 231 230
f 229 232 231
f 233 235 234
f 233 236 235
f 237 239 238
f 237 240 239
