mtllib ./Dark Forest.mtl
g CustomBase
v -25 -1.110223E-16 25
v -20 -1.110223E-16 25
v -15 -1.110223E-16 25
v -10 -1.110223E-16 25
v -5.000002 -1.110223E-16 25
v -2.185569E-06 -1.110223E-16 25
v 4.999999 -1.110223E-16 25
v 9.999997 -1.110223E-16 25
v 15 -1.110223E-16 25
v 20 -1.110223E-16 25
v 25 -1.110223E-16 25
v -25 -8.881784E-17 20
v -20 -8.881784E-17 20
v -15 -8.881784E-17 20
v -10 -8.881784E-17 20
v -5.000001 -8.881784E-17 20
v -1.748456E-06 -8.881784E-17 20
v 4.999999 -8.881784E-17 20
v 9.999997 -8.881784E-17 20
v 15 -8.881784E-17 20
v 20 -8.881784E-17 20
v 25 -8.881784E-17 20
v -25 -6.661338E-17 15
v -20 -6.661338E-17 15
v -15 -6.661338E-17 15
v -10 -6.661338E-17 15
v -5.000001 -6.661338E-17 15
v -1.311342E-06 -6.661338E-17 15
v 5 -6.661338E-17 15
v 9.999998 -6.661338E-17 15
v 15 -6.661338E-17 15
v 20 -6.661338E-17 15
v 25 -6.661338E-17 15
v -25 -4.440892E-17 9.999997
v -20 -4.440892E-17 9.999997
v -15 -4.440892E-17 9.999998
v -10 -4.440892E-17 9.999998
v -5 -4.440892E-17 9.999999
v -8.742277E-07 -4.440892E-17 9.999999
v 5 -4.440892E-17 9.999999
v 9.999998 -4.440892E-17 10
v 15 -4.440892E-17 10
v 20 -4.440892E-17 10
v 25 -4.440892E-17 10
v -25 -2.220446E-17 4.999997
v -20 -2.220446E-17 4.999998
v -15 -2.220446E-17 4.999998
v -9.999999 -2.220446E-17 4.999999
v -5 -2.220446E-17 4.999999
v -4.371138E-07 -2.220446E-17 5
v 5 -2.220446E-17 5
v 9.999999 -2.220446E-17 5
v 15 -2.220446E-17 5.000001
v 20 -2.220446E-17 5.000001
v 25 -2.220446E-17 5.000002
v -25 0 -2.185569E-06
v -20 0 -1.748456E-06
v -15 0 -1.311342E-06
v -9.999999 0 -8.742277E-07
v -5 0 -4.371138E-07
v 0 0 0
v 5.000001 0 4.37114E-07
v 9.999999 0 8.742277E-07
v 15 0 1.311342E-06
v 20 0 1.748456E-06
v 25 0 2.185569E-06
v -25 2.220447E-17 -5.000003
v -20 2.220447E-17 -5.000003
v -15 2.220447E-17 -5.000002
v -9.999999 2.220447E-17 -5.000002
v -4.999999 2.220447E-17 -5.000001
v 4.37114E-07 2.220447E-17 -5.000001
v 5.000001 2.220447E-17 -5
v 9.999999 2.220447E-17 -5
v 15 2.220447E-17 -5
v 20 2.220447E-17 -4.999999
v 25 2.220447E-17 -4.999999
v -25 4.440892E-17 -10
v -20 4.440892E-17 -10
v -15 4.440892E-17 -10
v -9.999998 4.440892E-17 -10
v -4.999999 4.440892E-17 -9.999999
v 8.742277E-07 4.440892E-17 -9.999999
v 5.000002 4.440892E-17 -9.999999
v 10 4.440892E-17 -9.999998
v 15 4.440892E-17 -9.999998
v 20 4.440892E-17 -9.999997
v 25 4.440892E-17 -9.999997
v -25 6.661338E-17 -15
v -20 6.661338E-17 -15
v -15 6.661338E-17 -15
v -9.999998 6.661338E-17 -15
v -4.999998 6.661338E-17 -15
v 1.311342E-06 6.661338E-17 -15
v 5.000002 6.661338E-17 -15
v 10 6.661338E-17 -15
v 15 6.661338E-17 -15
v 20 6.661338E-17 -15
v 25 6.661338E-17 -15
v -25 8.881785E-17 -20
v -20 8.881785E-17 -20
v -15 8.881785E-17 -20
v -9.999997 8.881785E-17 -20
v -4.999998 8.881785E-17 -20
v 1.748456E-06 8.881785E-17 -20
v 5.000003 8.881785E-17 -20
v 10 8.881785E-17 -20
v 15 8.881785E-17 -20
v 20 8.881785E-17 -20
v 25 8.881785E-17 -20
v -25 1.110223E-16 -25
v -20 1.110223E-16 -25
v -15 1.110223E-16 -25
v -9.999997 1.110223E-16 -25
v -4.999997 1.110223E-16 -25
v 2.185569E-06 1.110223E-16 -25
v 5.000003 1.110223E-16 -25
v 10 1.110223E-16 -25
v 15 1.110223E-16 -25
v 20 1.110223E-16 -25
v 25 1.110223E-16 -25

vn 0 1 0
vn 0 1 0
vn 0 1 0
vn 0 1 0
vn 0 1 0
vn 0 1 0
vn 0 1 0
vn 0 1 0
vn 0 1 0
vn 0 1 0
vn 0 1 0
vn 0 1 0
vn 0 1 0
vn 0 1 0
vn 0 1 0
vn 0 1 0
vn 0 1 0
vn 0 1 0
vn 0 1 0
vn 0 1 0
vn 0 1 0
vn 0 1 0
vn 0 1 0
vn 0 1 0
vn 0 1 0
vn 0 1 0
vn 0 1 0
vn 0 1 0
vn 0 1 0
vn 0 1 0
vn 0 1 0
vn 0 1 0
vn 0 1 0
vn 0 1 0
vn 0 1 0
vn 0 1 0
vn 0 1 0
vn 0 1 0
vn 0 1 0
vn 0 1 0
vn 0 1 0
vn 0 1 0
vn 0 1 0
vn 0 1 0
vn 0 1 0
vn 0 1 0
vn 0 1 0
vn 0 1 0
vn 0 1 0
vn 0 1 0
vn 0 1 0
vn 0 1 0
vn 0 1 0
vn 0 1 0
vn 0 1 0
vn 0 1 0
vn 0 1 0
vn 0 1 0
vn 0 1 0
vn 0 1 0
vn 0 1 0
vn 0 1 0
vn 0 1 0
vn 0 1 0
vn 0 1 0
vn 0 1 0
vn 0 1 0
vn 0 1 0
vn 0 1 0
vn 0 1 0
vn 0 1 0
vn 0 1 0
vn 0 1 0
vn 0 1 0
vn 0 1 0
vn 0 1 0
vn 0 1 0
vn 0 1 0
vn 0 1 0
vn 0 1 0
vn 0 1 0
vn 0 1 0
vn 0 1 0
vn 0 1 0
vn 0 1 0
vn 0 1 0
vn 0 1 0
vn 0 1 0
vn 0 1 0
vn 0 1 0
vn 0 1 0
vn 0 1 0
vn 0 1 0
vn 0 1 0
vn 0 1 0
vn 0 1 0
vn 0 1 0
vn 0 1 0
vn 0 1 0
vn 0 1 0
vn 0 1 0
vn 0 1 0
vn 0 1 0
vn 0 1 0
vn 0 1 0
vn 0 1 0
vn 0 1 0
vn 0 1 0
vn 0 1 0
vn 0 1 0
vn 0 1 0
vn 0 1 0
vn 0 1 0
vn 0 1 0
vn 0 1 0
vn 0 1 0
vn 0 1 0
vn 0 1 0
vn 0 1 0
vn 0 1 0
vn 0 1 0

vt 0 0
vt 0.1 0
vt 0.2 0
vt 0.3 0
vt 0.4 0
vt 0.5 0
vt 0.6 0
vt 0.7 0
vt 0.8 0
vt 0.9 0
vt 1 0
vt 0 0.1
vt 0.1 0.1
vt 0.2 0.1
vt 0.3 0.1
vt 0.4 0.1
vt 0.5 0.1
vt 0.6 0.1
vt 0.7 0.1
vt 0.8 0.1
vt 0.9 0.1
vt 1 0.1
vt 0 0.2
vt 0.1 0.2
vt 0.2 0.2
vt 0.3 0.2
vt 0.4 0.2
vt 0.5 0.2
vt 0.6 0.2
vt 0.7 0.2
vt 0.8 0.2
vt 0.9 0.2
vt 1 0.2
vt 0 0.3
vt 0.1 0.3
vt 0.2 0.3
vt 0.3 0.3
vt 0.4 0.3
vt 0.5 0.3
vt 0.6 0.3
vt 0.7 0.3
vt 0.8 0.3
vt 0.9 0.3
vt 1 0.3
vt 0 0.4
vt 0.1 0.4
vt 0.2 0.4
vt 0.3 0.4
vt 0.4 0.4
vt 0.5 0.4
vt 0.6 0.4
vt 0.7 0.4
vt 0.8 0.4
vt 0.9 0.4
vt 1 0.4
vt 0 0.5
vt 0.1 0.5
vt 0.2 0.5
vt 0.3 0.5
vt 0.4 0.5
vt 0.5 0.5
vt 0.6 0.5
vt 0.7 0.5
vt 0.8 0.5
vt 0.9 0.5
vt 1 0.5
vt 0 0.6
vt 0.1 0.6
vt 0.2 0.6
vt 0.3 0.6
vt 0.4 0.6
vt 0.5 0.6
vt 0.6 0.6
vt 0.7 0.6
vt 0.8 0.6
vt 0.9 0.6
vt 1 0.6
vt 0 0.7
vt 0.1 0.7
vt 0.2 0.7
vt 0.3 0.7
vt 0.4 0.7
vt 0.5 0.7
vt 0.6 0.7
vt 0.7 0.7
vt 0.8 0.7
vt 0.9 0.7
vt 1 0.7
vt 0 0.8
vt 0.1 0.8
vt 0.2 0.8
vt 0.3 0.8
vt 0.4 0.8
vt 0.5 0.8
vt 0.6 0.8
vt 0.7 0.8
vt 0.8 0.8
vt 0.9 0.8
vt 1 0.8
vt 0 0.9
vt 0.1 0.9
vt 0.2 0.9
vt 0.3 0.9
vt 0.4 0.9
vt 0.5 0.9
vt 0.6 0.9
vt 0.7 0.9
vt 0.8 0.9
vt 0.9 0.9
vt 1 0.9
vt 0 1
vt 0.1 1
vt 0.2 1
vt 0.3 1
vt 0.4 1
vt 0.5 1
vt 0.6 1
vt 0.7 1
vt 0.8 1
vt 0.9 1
vt 1 1
f 10 11 22
f 10 22 21
f 9 10 21
f 21 22 33
f 9 21 20
f 8 9 20
f 21 33 32
f 20 21 32
f 32 33 44
f 8 20 19
f 7 8 19
f 20 32 31
f 19 20 31
f 32 44 43
f 31 32 43
f 43 44 55
f 7 19 18
f 6 7 18
f 19 31 30
f 18 19 30
f 31 43 42
f 30 31 42
f 43 55 54
f 42 43 54
f 54 55 66
f 6 18 17
f 5 6 17
f 18 30 29
f 17 18 29
f 30 42 41
f 29 30 41
f 42 54 53
f 41 42 53
f 54 66 65
f 53 54 65
f 65 66 77
f 5 17 16
f 4 5 16
f 17 29 28
f 16 17 28
f 29 41 40
f 28 29 40
f 41 53 52
f 40 41 52
f 53 65 64
f 52 53 64
f 65 77 76
f 64 65 76
f 76 77 88
f 4 16 15
f 3 4 15
f 16 28 27
f 15 16 27
f 28 40 39
f 27 28 39
f 40 52 51
f 39 40 51
f 52 64 63
f 51 52 63
f 64 76 75
f 63 64 75
f 76 88 87
f 75 76 87
f 87 88 99
f 87 99 98
f 98 99 110
f 75 87 86
f 86 87 98
f 63 75 74
f 74 75 86
f 51 63 62
f 62 63 74
f 39 51 50
f 50 51 62
f 98 110 109
f 109 110 121
f 109 121 120
f 86 98 97
f 97 98 109
f 108 109 120
f 97 109 108
f 108 120 119
f 74 86 85
f 85 86 97
f 62 74 73
f 73 74 85
f 96 97 108
f 85 97 96
f 107 108 119
f 96 108 107
f 107 119 118
f 84 85 96
f 73 85 84
f 61 62 73
f 50 62 61
f 95 96 107
f 84 96 95
f 106 107 118
f 95 107 106
f 106 118 117
f 72 73 84
f 61 73 72
f 83 84 95
f 72 84 83
f 94 95 106
f 83 95 94
f 105 106 117
f 94 106 105
f 105 117 116
f 104 105 116
f 104 116 115
f 93 94 105
f 93 105 104
f 82 83 94
f 82 94 93
f 71 72 83
f 71 83 82
f 60 61 72
f 60 72 71
f 103 104 115
f 103 115 114
f 92 93 104
f 92 104 103
f 81 82 93
f 81 93 92
f 70 71 82
f 70 82 81
f 102 103 114
f 102 114 113
f 91 92 103
f 91 103 102
f 80 81 92
f 80 92 91
f 101 102 113
f 101 113 112
f 90 91 102
f 90 102 101
f 100 101 112
f 100 112 111
f 89 101 100
f 89 90 101
f 78 90 89
f 79 91 90
f 78 79 90
f 79 80 91
f 67 79 78
f 67 68 79
f 68 80 79
f 56 68 67
f 68 69 80
f 69 81 80
f 69 70 81
f 56 57 68
f 57 69 68
f 45 57 56
f 58 70 69
f 57 58 69
f 45 46 57
f 46 58 57
f 34 46 45
f 58 59 70
f 59 71 70
f 59 60 71
f 34 35 46
f 23 35 34
f 46 47 58
f 47 59 58
f 35 47 46
f 48 60 59
f 47 48 59
f 23 24 35
f 12 24 23
f 35 36 47
f 36 48 47
f 24 36 35
f 48 49 60
f 49 61 60
f 49 50 61
f 12 13 24
f 1 13 12
f 1 2 13
f 24 25 36
f 13 25 24
f 36 37 48
f 37 49 48
f 25 37 36
f 38 50 49
f 37 38 49
f 38 39 50
f 27 39 38
f 2 14 13
f 13 14 25
f 2 3 14
f 3 15 14
f 25 26 37
f 26 38 37
f 26 27 38
f 14 26 25
f 14 15 26
f 15 27 26
g Obstacle_0
v 9.228997 0 -18.68839
v 11.229 0 -18.68838
v 9.228997 2 -18.68839
v 11.229 2 -18.68838
v 9.228997 2 -20.68839
v 11.229 2 -20.68838
v 9.228997 0 -20.68839
v 11.229 0 -20.68838
v 9.228997 2 -18.68839
v 11.229 2 -18.68838
v 9.228997 2 -20.68839
v 11.229 2 -20.68838
v 9.228997 0 -20.68839
v 9.228997 0 -18.68839
v 11.229 0 -18.68838
v 11.229 0 -20.68838
v 11.229 0 -18.68838
v 11.229 2 -18.68838
v 11.229 2 -20.68838
v 11.229 0 -20.68838
v 9.228997 0 -20.68839
v 9.228997 2 -20.68839
v 9.228997 2 -18.68839
v 9.228997 0 -18.68839

vn -8.742278E-08 0 1
vn -8.742278E-08 0 1
vn -8.742278E-08 0 1
vn -8.742278E-08 0 1
vn 0 1 0
vn 0 1 0
vn 8.742278E-08 0 -1
vn 8.742278E-08 0 -1
vn 0 1 0
vn 0 1 0
vn 8.742278E-08 0 -1
vn 8.742278E-08 0 -1
vn 0 -1 0
vn 0 -1 0
vn 0 -1 0
vn 0 -1 0
vn 1 0 8.742278E-08
vn 1 0 8.742278E-08
vn 1 0 8.742278E-08
vn 1 0 8.742278E-08
vn -1 0 -8.742278E-08
vn -1 0 -8.742278E-08
vn -1 0 -8.742278E-08
vn -1 0 -8.742278E-08

vt 0 0
vt 1 0
vt 0 1
vt 1 1
vt 0 1
vt 1 1
vt 0 1
vt 1 1
vt 0 0
vt 1 0
vt 0 0
vt 1 0
vt 0 0
vt 0 1
vt 1 1
vt 1 0
vt 0 0
vt 0 1
vt 1 1
vt 1 0
vt 0 0
vt 0 1
vt 1 1
vt 1 0
f 122 125 124
f 122 123 125
f 130 127 126
f 130 131 127
f 132 129 128
f 132 133 129
f 134 136 135
f 134 137 136
f 138 140 139
f 138 141 140
f 142 144 143
f 142 145 144
g Obstacle_1
v 19.57194 0 16.99164
v 21.57194 0 16.99164
v 19.57194 2 16.99164
v 21.57194 2 16.99164
v 19.57194 2 14.99164
v 21.57194 2 14.99164
v 19.57194 0 14.99164
v 21.57194 0 14.99164
v 19.57194 2 16.99164
v 21.57194 2 16.99164
v 19.57194 2 14.99164
v 21.57194 2 14.99164
v 19.57194 0 14.99164
v 19.57194 0 16.99164
v 21.57194 0 16.99164
v 21.57194 0 14.99164
v 21.57194 0 16.99164
v 21.57194 2 16.99164
v 21.57194 2 14.99164
v 21.57194 0 14.99164
v 19.57194 0 14.99164
v 19.57194 2 14.99164
v 19.57194 2 16.99164
v 19.57194 0 16.99164

vn -8.742278E-08 0 1
vn -8.742278E-08 0 1
vn -8.742278E-08 0 1
vn -8.742278E-08 0 1
vn 0 1 0
vn 0 1 0
vn 8.742278E-08 0 -1
vn 8.742278E-08 0 -1
vn 0 1 0
vn 0 1 0
vn 8.742278E-08 0 -1
vn 8.742278E-08 0 -1
vn 0 -1 0
vn 0 -1 0
vn 0 -1 0
vn 0 -1 0
vn 1 0 8.742278E-08
vn 1 0 8.742278E-08
vn 1 0 8.742278E-08
vn 1 0 8.742278E-08
vn -1 0 -8.742278E-08
vn -1 0 -8.742278E-08
vn -1 0 -8.742278E-08
vn -1 0 -8.742278E-08

vt 0 0
vt 1 0
vt 0 1
vt 1 1
vt 0 1
vt 1 1
vt 0 1
vt 1 1
vt 0 0
vt 1 0
vt 0 0
vt 1 0
vt 0 0
vt 0 1
vt 1 1
vt 1 0
vt 0 0
vt 0 1
vt 1 1
vt 1 0
vt 0 0
vt 0 1
vt 1 1
vt 1 0
f 146 149 148
f 146 147 149
f 154 151 150
f 154 155 151
f 156 153 152
f 156 157 153
f 158 160 159
f 158 161 160
f 162 164 163
f 162 165 164
f 166 168 167
f 166 169 168
g Obstacle_2
v 20.87401 0 13.26056
v 22.87401 0 13.26056
v 20.87401 2 13.26056
v 22.87401 2 13.26056
v 20.87401 2 11.26056
v 22.87401 2 11.26056
v 20.87401 0 11.26056
v 22.87401 0 11.26056
v 20.87401 2 13.26056
v 22.87401 2 13.26056
v 20.87401 2 11.26056
v 22.87401 2 11.26056
v 20.87401 0 11.26056
v 20.87401 0 13.26056
v 22.87401 0 13.26056
v 22.87401 0 11.26056
v 22.87401 0 13.26056
v 22.87401 2 13.26056
v 22.87401 2 11.26056
v 22.87401 0 11.26056
v 20.87401 0 11.26056
v 20.87401 2 11.26056
v 20.87401 2 13.26056
v 20.87401 0 13.26056

vn -8.742278E-08 0 1
vn -8.742278E-08 0 1
vn -8.742278E-08 0 1
vn -8.742278E-08 0 1
vn 0 1 0
vn 0 1 0
vn 8.742278E-08 0 -1
vn 8.742278E-08 0 -1
vn 0 1 0
vn 0 1 0
vn 8.742278E-08 0 -1
vn 8.742278E-08 0 -1
vn 0 -1 0
vn 0 -1 0
vn 0 -1 0
vn 0 -1 0
vn 1 0 8.742278E-08
vn 1 0 8.742278E-08
vn 1 0 8.742278E-08
vn 1 0 8.742278E-08
vn -1 0 -8.742278E-08
vn -1 0 -8.742278E-08
vn -1 0 -8.742278E-08
vn -1 0 -8.742278E-08

vt 0 0
vt 1 0
vt 0 1
vt 1 1
vt 0 1
vt 1 1
vt 0 1
vt 1 1
vt 0 0
vt 1 0
vt 0 0
vt 1 0
vt 0 0
vt 0 1
vt 1 1
vt 1 0
vt 0 0
vt 0 1
vt 1 1
vt 1 0
vt 0 0
vt 0 1
vt 1 1
vt 1 0
f 170 173 172
f 170 171 173
f 178 175 174
f 178 179 175
f 180 177 176
f 180 181 177
f 182 184 183
f 182 185 184
f 186 188 187
f 186 189 188
f 190 192 191
f 190 193 192
g Obstacle_3
v 23.89144 0 -16.60313
v 25.89144 0 -16.60313
v 23.89144 2 -16.60313
v 25.89144 2 -16.60313
v 23.89144 2 -18.60313
v 25.89144 2 -18.60313
v 23.89144 0 -18.60313
v 25.89144 0 -18.60313
v 23.89144 2 -16.60313
v 25.89144 2 -16.60313
v 23.89144 2 -18.60313
v 25.89144 2 -18.60313
v 23.89144 0 -18.60313
v 23.89144 0 -16.60313
v 25.89144 0 -16.60313
v 25.89144 0 -18.60313
v 25.89144 0 -16.60313
v 25.89144 2 -16.60313
v 25.89144 2 -18.60313
v 25.89144 0 -18.60313
v 23.89144 0 -18.60313
v 23.89144 2 -18.60313
v 23.89144 2 -16.60313
v 23.89144 0 -16.60313

vn -8.742278E-08 0 1
vn -8.742278E-08 0 1
vn -8.742278E-08 0 1
vn -8.742278E-08 0 1
vn 0 1 0
vn 0 1 0
vn 8.742278E-08 0 -1
vn 8.742278E-08 0 -1
vn 0 1 0
vn 0 1 0
vn 8.742278E-08 0 -1
vn 8.742278E-08 0 -1
vn 0 -1 0
vn 0 -1 0
vn 0 -1 0
vn 0 -1 0
vn 1 0 8.742278E-08
vn 1 0 8.742278E-08
vn 1 0 8.742278E-08
vn 1 0 8.742278E-08
vn -1 0 -8.742278E-08
vn -1 0 -8.742278E-08
vn -1 0 -8.742278E-08
vn -1 0 -8.742278E-08

vt 0 0
vt 1 0
vt 0 1
vt 1 1
vt 0 1
vt 1 1
vt 0 1
vt 1 1
vt 0 0
vt 1 0
vt 0 0
vt 1 0
vt 0 0
vt 0 1
vt 1 1
vt 1 0
vt 0 0
vt 0 1
vt 1 1
vt 1 0
vt 0 0
vt 0 1
vt 1 1
vt 1 0
f 194 197 196
f 194 195 197
f 202 199 198
f 202 203 199
f 204 201 200
f 204 205 201
f 206 208 207
f 206 209 208
f 210 212 211
f 210 213 212
f 214 216 215
f 214 217 216
g Obstacle_4
v 8.437185 0 20.46084
v 10.43719 0 20.46084
v 8.437185 2 20.46084
v 10.43719 2 20.46084
v 8.437185 2 18.46084
v 10.43719 2 18.46084
v 8.437185 0 18.46084
v 10.43719 0 18.46084
v 8.437185 2 20.46084
v 10.43719 2 20.46084
v 8.437185 2 18.46084
v 10.43719 2 18.46084
v 8.437185 0 18.46084
v 8.437185 0 20.46084
v 10.43719 0 20.46084
v 10.43719 0 18.46084
v 10.43719 0 20.46084
v 10.43719 2 20.46084
v 10.43719 2 18.46084
v 10.43719 0 18.46084
v 8.437185 0 18.46084
v 8.437185 2 18.46084
v 8.437185 2 20.46084
v 8.437185 0 20.46084

vn -8.742278E-08 0 1
vn -8.742278E-08 0 1
vn -8.742278E-08 0 1
vn -8.742278E-08 0 1
vn 0 1 0
vn 0 1 0
vn 8.742278E-08 0 -1
vn 8.742278E-08 0 -1
vn 0 1 0
vn 0 1 0
vn 8.742278E-08 0 -1
vn 8.742278E-08 0 -1
vn 0 -1 0
vn 0 -1 0
vn 0 -1 0
vn 0 -1 0
vn 1 0 8.742278E-08
vn 1 0 8.742278E-08
vn 1 0 8.742278E-08
vn 1 0 8.742278E-08
vn -1 0 -8.742278E-08
vn -1 0 -8.742278E-08
vn -1 0 -8.742278E-08
vn -1 0 -8.742278E-08

vt 0 0
vt 1 0
vt 0 1
vt 1 1
vt 0 1
vt 1 1
vt 0 1
vt 1 1
vt 0 0
vt 1 0
vt 0 0
vt 1 0
vt 0 0
vt 0 1
vt 1 1
vt 1 0
vt 0 0
vt 0 1
vt 1 1
vt 1 0
vt 0 0
vt 0 1
vt 1 1
vt 1 0
f 218 221 220
f 218 219 221
f 226 223 222
f 226 227 223
f 228 225 224
f 228 229 225
f 230 232 231
f 230 233 232
f 234 236 235
f 234 237 236
f 238 240 239
f 238 241 240
g Obstacle_5
v -11.58279 0 5.682059
v -9.582793 0 5.682059
v -11.58279 2 5.682059
v -9.582793 2 5.682059
v -11.58279 2 3.682059
v -9.582792 2 3.682059
v -11.58279 0 3.682059
v -9.582792 0 3.682059
v -11.58279 2 5.682059
v -9.582793 2 5.682059
v -11.58279 2 3.682059
v -9.582792 2 3.682059
v -11.58279 0 3.682059
v -11.58279 0 5.682059
v -9.582793 0 5.682059
v -9.582792 0 3.682059
v -9.582793 0 5.682059
v -9.582793 2 5.682059
v -9.582792 2 3.682059
v -9.582792 0 3.682059
v -11.58279 0 3.682059
v -11.58279 2 3.682059
v -11.58279 2 5.682059
v -11.58279 0 5.682059

vn -8.742278E-08 0 1
vn -8.742278E-08 0 1
vn -8.742278E-08 0 1
vn -8.742278E-08 0 1
vn 0 1 0
vn 0 1 0
vn 8.742278E-08 0 -1
vn 8.742278E-08 0 -1
vn 0 1 0
vn 0 1 0
vn 8.742278E-08 0 -1
vn 8.742278E-08 0 -1
vn 0 -1 0
vn 0 -1 0
vn 0 -1 0
vn 0 -1 0
vn 1 0 8.742278E-08
vn 1 0 8.742278E-08
vn 1 0 8.742278E-08
vn 1 0 8.742278E-08
vn -1 0 -8.742278E-08
vn -1 0 -8.742278E-08
vn -1 0 -8.742278E-08
vn -1 0 -8.742278E-08

vt 0 0
vt 1 0
vt 0 1
vt 1 1
vt 0 1
vt 1 1
vt 0 1
vt 1 1
vt 0 0
vt 1 0
vt 0 0
vt 1 0
vt 0 0
vt 0 1
vt 1 1
vt 1 0
vt 0 0
vt 0 1
vt 1 1
vt 1 0
vt 0 0
vt 0 1
vt 1 1
vt 1 0
f 242 245 244
f 242 243 245
f 250 247 246
f 250 251 247
f 252 249 248
f 252 253 249
f 254 256 255
f 254 257 256
f 258 260 259
f 258 261 260
f 262 264 263
f 262 265 264
g Obstacle_6
v 1.037285 0 -19.44933
v 3.037285 0 -19.44933
v 1.037285 2 -19.44933
v 3.037285 2 -19.44933
v 1.037285 2 -21.44933
v 3.037285 2 -21.44933
v 1.037285 0 -21.44933
v 3.037285 0 -21.44933
v 1.037285 2 -19.44933
v 3.037285 2 -19.44933
v 1.037285 2 -21.44933
v 3.037285 2 -21.44933
v 1.037285 0 -21.44933
v 1.037285 0 -19.44933
v 3.037285 0 -19.44933
v 3.037285 0 -21.44933
v 3.037285 0 -19.44933
v 3.037285 2 -19.44933
v 3.037285 2 -21.44933
v 3.037285 0 -21.44933
v 1.037285 0 -21.44933
v 1.037285 2 -21.44933
v 1.037285 2 -19.44933
v 1.037285 0 -19.44933

vn -8.742278E-08 0 1
vn -8.742278E-08 0 1
vn -8.742278E-08 0 1
vn -8.742278E-08 0 1
vn 0 1 0
vn 0 1 0
vn 8.742278E-08 0 -1
vn 8.742278E-08 0 -1
vn 0 1 0
vn 0 1 0
vn 8.742278E-08 0 -1
vn 8.742278E-08 0 -1
vn 0 -1 0
vn 0 -1 0
vn 0 -1 0
vn 0 -1 0
vn 1 0 8.742278E-08
vn 1 0 8.742278E-08
vn 1 0 8.742278E-08
vn 1 0 8.742278E-08
vn -1 0 -8.742278E-08
vn -1 0 -8.742278E-08
vn -1 0 -8.742278E-08
vn -1 0 -8.742278E-08

vt 0 0
vt 1 0
vt 0 1
vt 1 1
vt 0 1
vt 1 1
vt 0 1
vt 1 1
vt 0 0
vt 1 0
vt 0 0
vt 1 0
vt 0 0
vt 0 1
vt 1 1
vt 1 0
vt 0 0
vt 0 1
vt 1 1
vt 1 0
vt 0 0
vt 0 1
vt 1 1
vt 1 0
f 266 269 268
f 266 267 269
f 274 271 270
f 274 275 271
f 276 273 272
f 276 277 273
f 278 280 279
f 278 281 280
f 282 284 283
f 282 285 284
f 286 288 287
f 286 289 288
g Obstacle_7
v -16.46481 0 0.1012769
v -14.46481 0 0.101277
v -16.46481 2 0.1012769
v -14.46481 2 0.101277
v -16.46481 2 -1.898723
v -14.46481 2 -1.898723
v -16.46481 0 -1.898723
v -14.46481 0 -1.898723
v -16.46481 2 0.1012769
v -14.46481 2 0.101277
v -16.46481 2 -1.898723
v -14.46481 2 -1.898723
v -16.46481 0 -1.898723
v -16.46481 0 0.1012769
v -14.46481 0 0.101277
v -14.46481 0 -1.898723
v -14.46481 0 0.101277
v -14.46481 2 0.101277
v -14.46481 2 -1.898723
v -14.46481 0 -1.898723
v -16.46481 0 -1.898723
v -16.46481 2 -1.898723
v -16.46481 2 0.1012769
v -16.46481 0 0.1012769

vn -8.742278E-08 0 1
vn -8.742278E-08 0 1
vn -8.742278E-08 0 1
vn -8.742278E-08 0 1
vn 0 1 0
vn 0 1 0
vn 8.742278E-08 0 -1
vn 8.742278E-08 0 -1
vn 0 1 0
vn 0 1 0
vn 8.742278E-08 0 -1
vn 8.742278E-08 0 -1
vn 0 -1 0
vn 0 -1 0
vn 0 -1 0
vn 0 -1 0
vn 1 0 8.742278E-08
vn 1 0 8.742278E-08
vn 1 0 8.742278E-08
vn 1 0 8.742278E-08
vn -1 0 -8.742278E-08
vn -1 0 -8.742278E-08
vn -1 0 -8.742278E-08
vn -1 0 -8.742278E-08

vt 0 0
vt 1 0
vt 0 1
vt 1 1
vt 0 1
vt 1 1
vt 0 1
vt 1 1
vt 0 0
vt 1 0
vt 0 0
vt 1 0
vt 0 0
vt 0 1
vt 1 1
vt 1 0
vt 0 0
vt 0 1
vt 1 1
vt 1 0
vt 0 0
vt 0 1
vt 1 1
vt 1 0
f 290 293 292
f 290 291 293
f 298 295 294
f 298 299 295
f 300 297 296
f 300 301 297
f 302 304 303
f 302 305 304
f 306 308 307
f 306 309 308
f 310 312 311
f 310 313 312
g Obstacle_8
v -9.327412 0 -0.04644666
v -7.327412 0 -0.04644649
v -9.327412 2 -0.04644666
v -7.327412 2 -0.04644649
v -9.327412 2 -2.046447
v -7.327412 2 -2.046447
v -9.327412 0 -2.046447
v -7.327412 0 -2.046447
v -9.327412 2 -0.04644666
v -7.327412 2 -0.04644649
v -9.327412 2 -2.046447
v -7.327412 2 -2.046447
v -9.327412 0 -2.046447
v -9.327412 0 -0.04644666
v -7.327412 0 -0.04644649
v -7.327412 0 -2.046447
v -7.327412 0 -0.04644649
v -7.327412 2 -0.04644649
v -7.327412 2 -2.046447
v -7.327412 0 -2.046447
v -9.327412 0 -2.046447
v -9.327412 2 -2.046447
v -9.327412 2 -0.04644666
v -9.327412 0 -0.04644666

vn -8.742278E-08 0 1
vn -8.742278E-08 0 1
vn -8.742278E-08 0 1
vn -8.742278E-08 0 1
vn 0 1 0
vn 0 1 0
vn 8.742278E-08 0 -1
vn 8.742278E-08 0 -1
vn 0 1 0
vn 0 1 0
vn 8.742278E-08 0 -1
vn 8.742278E-08 0 -1
vn 0 -1 0
vn 0 -1 0
vn 0 -1 0
vn 0 -1 0
vn 1 0 8.742278E-08
vn 1 0 8.742278E-08
vn 1 0 8.742278E-08
vn 1 0 8.742278E-08
vn -1 0 -8.742278E-08
vn -1 0 -8.742278E-08
vn -1 0 -8.742278E-08
vn -1 0 -8.742278E-08

vt 0 0
vt 1 0
vt 0 1
vt 1 1
vt 0 1
vt 1 1
vt 0 1
vt 1 1
vt 0 0
vt 1 0
vt 0 0
vt 1 0
vt 0 0
vt 0 1
vt 1 1
vt 1 0
vt 0 0
vt 0 1
vt 1 1
vt 1 0
vt 0 0
vt 0 1
vt 1 1
vt 1 0
f 314 317 316
f 314 315 317
f 322 319 318
f 322 323 319
f 324 321 320
f 324 325 321
f 326 328 327
f 326 329 328
f 330 332 331
f 330 333 332
f 334 336 335
f 334 337 336
g Obstacle_9
v -10.8094 0 15.10444
v -8.809399 0 15.10444
v -10.8094 2 15.10444
v -8.809399 2 15.10444
v -10.8094 2 13.10444
v -8.809399 2 13.10444
v -10.8094 0 13.10444
v -8.809399 0 13.10444
v -10.8094 2 15.10444
v -8.809399 2 15.10444
v -10.8094 2 13.10444
v -8.809399 2 13.10444
v -10.8094 0 13.10444
v -10.8094 0 15.10444
v -8.809399 0 15.10444
v -8.809399 0 13.10444
v -8.809399 0 15.10444
v -8.809399 2 15.10444
v -8.809399 2 13.10444
v -8.809399 0 13.10444
v -10.8094 0 13.10444
v -10.8094 2 13.10444
v -10.8094 2 15.10444
v -10.8094 0 15.10444

vn -8.742278E-08 0 1
vn -8.742278E-08 0 1
vn -8.742278E-08 0 1
vn -8.742278E-08 0 1
vn 0 1 0
vn 0 1 0
vn 8.742278E-08 0 -1
vn 8.742278E-08 0 -1
vn 0 1 0
vn 0 1 0
vn 8.742278E-08 0 -1
vn 8.742278E-08 0 -1
vn 0 -1 0
vn 0 -1 0
vn 0 -1 0
vn 0 -1 0
vn 1 0 8.742278E-08
vn 1 0 8.742278E-08
vn 1 0 8.742278E-08
vn 1 0 8.742278E-08
vn -1 0 -8.742278E-08
vn -1 0 -8.742278E-08
vn -1 0 -8.742278E-08
vn -1 0 -8.742278E-08

vt 0 0
vt 1 0
vt 0 1
vt 1 1
vt 0 1
vt 1 1
vt 0 1
vt 1 1
vt 0 0
vt 1 0
vt 0 0
vt 1 0
vt 0 0
vt 0 1
vt 1 1
vt 1 0
vt 0 0
vt 0 1
vt 1 1
vt 1 0
vt 0 0
vt 0 1
vt 1 1
vt 1 0
f 338 341 340
f 338 339 341
f 346 343 342
f 346 347 343
f 348 345 344
f 348 349 345
f 350 352 351
f 350 353 352
f 354 356 355
f 354 357 356
f 358 360 359
f 358 361 360
g Obstacle_10
v -20.17531 0 -20.91881
v -18.17531 0 -20.91881
v -20.17531 2 -20.91881
v -18.17531 2 -20.91881
v -20.17531 2 -22.91881
v -18.17531 2 -22.91881
v -20.17531 0 -22.91881
v -18.17531 0 -22.91881
v -20.17531 2 -20.91881
v -18.17531 2 -20.91881
v -20.17531 2 -22.91881
v -18.17531 2 -22.91881
v -20.17531 0 -22.91881
v -20.17531 0 -20.91881
v -18.17531 0 -20.91881
v -18.17531 0 -22.91881
v -18.17531 0 -20.91881
v -18.17531 2 -20.91881
v -18.17531 2 -22.91881
v -18.17531 0 -22.91881
v -20.17531 0 -22.91881
v -20.17531 2 -22.91881
v -20.17531 2 -20.91881
v -20.17531 0 -20.91881

vn -8.742278E-08 0 1
vn -8.742278E-08 0 1
vn -8.742278E-08 0 1
vn -8.742278E-08 0 1
vn 0 1 0
vn 0 1 0
vn 8.742278E-08 0 -1
vn 8.742278E-08 0 -1
vn 0 1 0
vn 0 1 0
vn 8.742278E-08 0 -1
vn 8.742278E-08 0 -1
vn 0 -1 0
vn 0 -1 0
vn 0 -1 0
vn 0 -1 0
vn 1 0 8.742278E-08
vn 1 0 8.742278E-08
vn 1 0 8.742278E-08
vn 1 0 8.742278E-08
vn -1 0 -8.742278E-08
vn -1 0 -8.742278E-08
vn -1 0 -8.742278E-08
vn -1 0 -8.742278E-08

vt 0 0
vt 1 0
vt 0 1
vt 1 1
vt 0 1
vt 1 1
vt 0 1
vt 1 1
vt 0 0
vt 1 0
vt 0 0
vt 1 0
vt 0 0
vt 0 1
vt 1 1
vt 1 0
vt 0 0
vt 0 1
vt 1 1
vt 1 0
vt 0 0
vt 0 1
vt 1 1
vt 1 0
f 362 365 364
f 362 363 365
f 370 367 366
f 370 371 367
f 372 369 368
f 372 373 369
f 374 376 375
f 374 377 376
f 378 380 379
f 378 381 380
f 382 384 383
f 382 385 384
g Obstacle_11
v -23.14942 0 21.43356
v -21.14942 0 21.43356
v -23.14942 2 21.43356
v -21.14942 2 21.43356
v -23.14942 2 19.43356
v -21.14942 2 19.43356
v -23.14942 0 19.43356
v -21.14942 0 19.43356
v -23.14942 2 21.43356
v -21.14942 2 21.43356
v -23.14942 2 19.43356
v -21.14942 2 19.43356
v -23.14942 0 19.43356
v -23.14942 0 21.43356
v -21.14942 0 21.43356
v -21.14942 0 19.43356
v -21.14942 0 21.43356
v -21.14942 2 21.43356
v -21.14942 2 19.43356
v -21.14942 0 19.43356
v -23.14942 0 19.43356
v -23.14942 2 19.43356
v -23.14942 2 21.43356
v -23.14942 0 21.43356

vn -8.742278E-08 0 1
vn -8.742278E-08 0 1
vn -8.742278E-08 0 1
vn -8.742278E-08 0 1
vn 0 1 0
vn 0 1 0
vn 8.742278E-08 0 -1
vn 8.742278E-08 0 -1
vn 0 1 0
vn 0 1 0
vn 8.742278E-08 0 -1
vn 8.742278E-08 0 -1
vn 0 -1 0
vn 0 -1 0
vn 0 -1 0
vn 0 -1 0
vn 1 0 8.742278E-08
vn 1 0 8.742278E-08
vn 1 0 8.742278E-08
vn 1 0 8.742278E-08
vn -1 0 -8.742278E-08
vn -1 0 -8.742278E-08
vn -1 0 -8.742278E-08
vn -1 0 -8.742278E-08

vt 0 0
vt 1 0
vt 0 1
vt 1 1
vt 0 1
vt 1 1
vt 0 1
vt 1 1
vt 0 0
vt 1 0
vt 0 0
vt 1 0
vt 0 0
vt 0 1
vt 1 1
vt 1 0
vt 0 0
vt 0 1
vt 1 1
vt 1 0
vt 0 0
vt 0 1
vt 1 1
vt 1 0
f 386 389 388
f 386 387 389
f 394 391 390
f 394 395 391
f 396 393 392
f 396 397 393
f 398 400 399
f 398 401 400
f 402 404 403
f 402 405 404
f 406 408 407
f 406 409 408
g Obstacle_12
v -13.61513 0 1.185879
v -11.61513 0 1.18588
v -13.61513 2 1.185879
v -11.61513 2 1.18588
v -13.61513 2 -0.8141205
v -11.61513 2 -0.8141204
v -13.61513 0 -0.8141205
v -11.61513 0 -0.8141204
v -13.61513 2 1.185879
v -11.61513 2 1.18588
v -13.61513 2 -0.8141205
v -11.61513 2 -0.8141204
v -13.61513 0 -0.8141205
v -13.61513 0 1.185879
v -11.61513 0 1.18588
v -11.61513 0 -0.8141204
v -11.61513 0 1.18588
v -11.61513 2 1.18588
v -11.61513 2 -0.8141204
v -11.61513 0 -0.8141204
v -13.61513 0 -0.8141205
v -13.61513 2 -0.8141205
v -13.61513 2 1.185879
v -13.61513 0 1.185879

vn -8.742278E-08 0 1
vn -8.742278E-08 0 1
vn -8.742278E-08 0 1
vn -8.742278E-08 0 1
vn 0 1 0
vn 0 1 0
vn 8.742278E-08 0 -1
vn 8.742278E-08 0 -1
vn 0 1 0
vn 0 1 0
vn 8.742278E-08 0 -1
vn 8.742278E-08 0 -1
vn 0 -1 0
vn 0 -1 0
vn 0 -1 0
vn 0 -1 0
vn 1 0 8.742278E-08
vn 1 0 8.742278E-08
vn 1 0 8.742278E-08
vn 1 0 8.742278E-08
vn -1 0 -8.742278E-08
vn -1 0 -8.742278E-08
vn -1 0 -8.742278E-08
vn -1 0 -8.742278E-08

vt 0 0
vt 1 0
vt 0 1
vt 1 1
vt 0 1
vt 1 1
vt 0 1
vt 1 1
vt 0 0
vt 1 0
vt 0 0
vt 1 0
vt 0 0
vt 0 1
vt 1 1
vt 1 0
vt 0 0
vt 0 1
vt 1 1
vt 1 0
vt 0 0
vt 0 1
vt 1 1
vt 1 0
f 410 413 412
f 410 411 413
f 418 415 414
f 418 419 415
f 420 417 416
f 420 421 417
f 422 424 423
f 422 425 424
f 426 428 427
f 426 429 428
f 430 432 431
f 430 433 432
g Obstacle_13
v 10.68215 0 24.60402
v 12.68215 0 24.60402
v 10.68215 2 24.60402
v 12.68215 2 24.60402
v 10.68215 2 22.60402
v 12.68215 2 22.60402
v 10.68215 0 22.60402
v 12.68215 0 22.60402
v 10.68215 2 24.60402
v 12.68215 2 24.60402
v 10.68215 2 22.60402
v 12.68215 2 22.60402
v 10.68215 0 22.60402
v 10.68215 0 24.60402
v 12.68215 0 24.60402
v 12.68215 0 22.60402
v 12.68215 0 24.60402
v 12.68215 2 24.60402
v 12.68215 2 22.60402
v 12.68215 0 22.60402
v 10.68215 0 22.60402
v 10.68215 2 22.60402
v 10.68215 2 24.60402
v 10.68215 0 24.60402

vn -8.742278E-08 0 1
vn -8.742278E-08 0 1
vn -8.742278E-08 0 1
vn -8.742278E-08 0 1
vn 0 1 0
vn 0 1 0
vn 8.742278E-08 0 -1
vn 8.742278E-08 0 -1
vn 0 1 0
vn 0 1 0
vn 8.742278E-08 0 -1
vn 8.742278E-08 0 -1
vn 0 -1 0
vn 0 -1 0
vn 0 -1 0
vn 0 -1 0
vn 1 0 8.742278E-08
vn 1 0 8.742278E-08
vn 1 0 8.742278E-08
vn 1 0 8.742278E-08
vn -1 0 -8.742278E-08
vn -1 0 -8.742278E-08
vn -1 0 -8.742278E-08
vn -1 0 -8.742278E-08

vt 0 0
vt 1 0
vt 0 1
vt 1 1
vt 0 1
vt 1 1
vt 0 1
vt 1 1
vt 0 0
vt 1 0
vt 0 0
vt 1 0
vt 0 0
vt 0 1
vt 1 1
vt 1 0
vt 0 0
vt 0 1
vt 1 1
vt 1 0
vt 0 0
vt 0 1
vt 1 1
vt 1 0
f 434 437 436
f 434 435 437
f 442 439 438
f 442 443 439
f 444 441 440
f 444 445 441
f 446 448 447
f 446 449 448
f 450 452 451
f 450 453 452
f 454 456 455
f 454 457 456
g Obstacle_14
v -16.24187 0 22.09176
v -14.24187 0 22.09176
v -16.24187 2 22.09176
v -14.24187 2 22.09176
v -16.24187 2 20.09176
v -14.24187 2 20.09176
v -16.24187 0 20.09176
v -14.24187 0 20.09176
v -16.24187 2 22.09176
v -14.24187 2 22.09176
v -16.24187 2 20.09176
v -14.24187 2 20.09176
v -16.24187 0 20.09176
v -16.24187 0 22.09176
v -14.24187 0 22.09176
v -14.24187 0 20.09176
v -14.24187 0 22.09176
v -14.24187 2 22.09176
v -14.24187 2 20.09176
v -14.24187 0 20.09176
v -16.24187 0 20.09176
v -16.24187 2 20.09176
v -16.24187 2 22.09176
v -16.24187 0 22.09176

vn -8.742278E-08 0 1
vn -8.742278E-08 0 1
vn -8.742278E-08 0 1
vn -8.742278E-08 0 1
vn 0 1 0
vn 0 1 0
vn 8.742278E-08 0 -1
vn 8.742278E-08 0 -1
vn 0 1 0
vn 0 1 0
vn 8.742278E-08 0 -1
vn 8.742278E-08 0 -1
vn 0 -1 0
vn 0 -1 0
vn 0 -1 0
vn 0 -1 0
vn 1 0 8.742278E-08
vn 1 0 8.742278E-08
vn 1 0 8.742278E-08
vn 1 0 8.742278E-08
vn -1 0 -8.742278E-08
vn -1 0 -8.742278E-08
vn -1 0 -8.742278E-08
vn -1 0 -8.742278E-08

vt 0 0
vt 1 0
vt 0 1
vt 1 1
vt 0 1
vt 1 1
vt 0 1
vt 1 1
vt 0 0
vt 1 0
vt 0 0
vt 1 0
vt 0 0
vt 0 1
vt 1 1
vt 1 0
vt 0 0
vt 0 1
vt 1 1
vt 1 0
vt 0 0
vt 0 1
vt 1 1
vt 1 0
f 458 461 460
f 458 459 461
f 466 463 462
f 466 467 463
f 468 465 464
f 468 469 465
f 470 472 471
f 470 473 472
f 474 476 475
f 474 477 476
f 478 480 479
f 478 481 480
g Obstacle_15
v -14.76104 0 12.8373
v -12.76104 0 12.8373
v -14.76104 2 12.8373
v -12.76104 2 12.8373
v -14.76104 2 10.8373
v -12.76104 2 10.8373
v -14.76104 0 10.8373
v -12.76104 0 10.8373
v -14.76104 2 12.8373
v -12.76104 2 12.8373
v -14.76104 2 10.8373
v -12.76104 2 10.8373
v -14.76104 0 10.8373
v -14.76104 0 12.8373
v -12.76104 0 12.8373
v -12.76104 0 10.8373
v -12.76104 0 12.8373
v -12.76104 2 12.8373
v -12.76104 2 10.8373
v -12.76104 0 10.8373
v -14.76104 0 10.8373
v -14.76104 2 10.8373
v -14.76104 2 12.8373
v -14.76104 0 12.8373

vn -8.742278E-08 0 1
vn -8.742278E-08 0 1
vn -8.742278E-08 0 1
vn -8.742278E-08 0 1
vn 0 1 0
vn 0 1 0
vn 8.742278E-08 0 -1
vn 8.742278E-08 0 -1
vn 0 1 0
vn 0 1 0
vn 8.742278E-08 0 -1
vn 8.742278E-08 0 -1
vn 0 -1 0
vn 0 -1 0
vn 0 -1 0
vn 0 -1 0
vn 1 0 8.742278E-08
vn 1 0 8.742278E-08
vn 1 0 8.742278E-08
vn 1 0 8.742278E-08
vn -1 0 -8.742278E-08
vn -1 0 -8.742278E-08
vn -1 0 -8.742278E-08
vn -1 0 -8.742278E-08

vt 0 0
vt 1 0
vt 0 1
vt 1 1
vt 0 1
vt 1 1
vt 0 1
vt 1 1
vt 0 0
vt 1 0
vt 0 0
vt 1 0
vt 0 0
vt 0 1
vt 1 1
vt 1 0
vt 0 0
vt 0 1
vt 1 1
vt 1 0
vt 0 0
vt 0 1
vt 1 1
vt 1 0
f 482 485 484
f 482 483 485
f 490 487 486
f 490 491 487
f 492 489 488
f 492 493 489
f 494 496 495
f 494 497 496
f 498 500 499
f 498 501 500
f 502 504 503
f 502 505 504
g Obstacle_16
v -6.37649 0 -15.71499
v -4.37649 0 -15.71498
v -6.37649 2 -15.71499
v -4.37649 2 -15.71498
v -6.37649 2 -17.71498
v -4.37649 2 -17.71498
v -6.37649 0 -17.71498
v -4.37649 0 -17.71498
v -6.37649 2 -15.71499
v -4.37649 2 -15.71498
v -6.37649 2 -17.71498
v -4.37649 2 -17.71498
v -6.37649 0 -17.71498
v -6.37649 0 -15.71499
v -4.37649 0 -15.71498
v -4.37649 0 -17.71498
v -4.37649 0 -15.71498
v -4.37649 2 -15.71498
v -4.37649 2 -17.71498
v -4.37649 0 -17.71498
v -6.37649 0 -17.71498
v -6.37649 2 -17.71498
v -6.37649 2 -15.71499
v -6.37649 0 -15.71499

vn -8.742278E-08 0 1
vn -8.742278E-08 0 1
vn -8.742278E-08 0 1
vn -8.742278E-08 0 1
vn 0 1 0
vn 0 1 0
vn 8.742278E-08 0 -1
vn 8.742278E-08 0 -1
vn 0 1 0
vn 0 1 0
vn 8.742278E-08 0 -1
vn 8.742278E-08 0 -1
vn 0 -1 0
vn 0 -1 0
vn 0 -1 0
vn 0 -1 0
vn 1 0 8.742278E-08
vn 1 0 8.742278E-08
vn 1 0 8.742278E-08
vn 1 0 8.742278E-08
vn -1 0 -8.742278E-08
vn -1 0 -8.742278E-08
vn -1 0 -8.742278E-08
vn -1 0 -8.742278E-08

vt 0 0
vt 1 0
vt 0 1
vt 1 1
vt 0 1
vt 1 1
vt 0 1
vt 1 1
vt 0 0
vt 1 0
vt 0 0
vt 1 0
vt 0 0
vt 0 1
vt 1 1
vt 1 0
vt 0 0
vt 0 1
vt 1 1
vt 1 0
vt 0 0
vt 0 1
vt 1 1
vt 1 0
f 506 509 508
f 506 507 509
f 514 511 510
f 514 515 511
f 516 513 512
f 516 517 513
f 518 520 519
f 518 521 520
f 522 524 523
f 522 525 524
f 526 528 527
f 526 529 528
g Obstacle_17
v -1.104449 0 9.259974
v 0.8955508 0 9.259974
v -1.104449 2 9.259974
v 0.8955508 2 9.259974
v -1.104449 2 7.259974
v 0.895551 2 7.259974
v -1.104449 0 7.259974
v 0.895551 0 7.259974
v -1.104449 2 9.259974
v 0.8955508 2 9.259974
v -1.104449 2 7.259974
v 0.895551 2 7.259974
v -1.104449 0 7.259974
v -1.104449 0 9.259974
v 0.8955508 0 9.259974
v 0.895551 0 7.259974
v 0.8955508 0 9.259974
v 0.8955508 2 9.259974
v 0.895551 2 7.259974
v 0.895551 0 7.259974
v -1.104449 0 7.259974
v -1.104449 2 7.259974
v -1.104449 2 9.259974
v -1.104449 0 9.259974

vn -8.742278E-08 0 1
vn -8.742278E-08 0 1
vn -8.742278E-08 0 1
vn -8.742278E-08 0 1
vn 0 1 0
vn 0 1 0
vn 8.742278E-08 0 -1
vn 8.742278E-08 0 -1
vn 0 1 0
vn 0 1 0
vn 8.742278E-08 0 -1
vn 8.742278E-08 0 -1
vn 0 -1 0
vn 0 -1 0
vn 0 -1 0
vn 0 -1 0
vn 1 0 8.742278E-08
vn 1 0 8.742278E-08
vn 1 0 8.742278E-08
vn 1 0 8.742278E-08
vn -1 0 -8.742278E-08
vn -1 0 -8.742278E-08
vn -1 0 -8.742278E-08
vn -1 0 -8.742278E-08

vt 0 0
vt 1 0
vt 0 1
vt 1 1
vt 0 1
vt 1 1
vt 0 1
vt 1 1
vt 0 0
vt 1 0
vt 0 0
vt 1 0
vt 0 0
vt 0 1
vt 1 1
vt 1 0
vt 0 0
vt 0 1
vt 1 1
vt 1 0
vt 0 0
vt 0 1
vt 1 1
vt 1 0
f 530 533 532
f 530 531 533
f 538 535 534
f 538 539 535
f 540 537 536
f 540 541 537
f 542 544 543
f 542 545 544
f 546 548 547
f 546 549 548
f 550 552 551
f 550 553 552
g Obstacle_18
v -18.73204 0 -10.26755
v -16.73204 0 -10.26755
v -18.73204 2 -10.26755
v -16.73204 2 -10.26755
v -18.73204 2 -12.26755
v -16.73204 2 -12.26755
v -18.73204 0 -12.26755
v -16.73204 0 -12.26755
v -18.73204 2 -10.26755
v -16.73204 2 -10.26755
v -18.73204 2 -12.26755
v -16.73204 2 -12.26755
v -18.73204 0 -12.26755
v -18.73204 0 -10.26755
v -16.73204 0 -10.26755
v -16.73204 0 -12.26755
v -16.73204 0 -10.26755
v -16.73204 2 -10.26755
v -16.73204 2 -12.26755
v -16.73204 0 -12.26755
v -18.73204 0 -12.26755
v -18.73204 2 -12.26755
v -18.73204 2 -10.26755
v -18.73204 0 -10.26755

vn -8.742278E-08 0 1
vn -8.742278E-08 0 1
vn -8.742278E-08 0 1
vn -8.742278E-08 0 1
vn 0 1 0
vn 0 1 0
vn 8.742278E-08 0 -1
vn 8.742278E-08 0 -1
vn 0 1 0
vn 0 1 0
vn 8.742278E-08 0 -1
vn 8.742278E-08 0 -1
vn 0 -1 0
vn 0 -1 0
vn 0 -1 0
vn 0 -1 0
vn 1 0 8.742278E-08
vn 1 0 8.742278E-08
vn 1 0 8.742278E-08
vn 1 0 8.742278E-08
vn -1 0 -8.742278E-08
vn -1 0 -8.742278E-08
vn -1 0 -8.742278E-08
vn -1 0 -8.742278E-08

vt 0 0
vt 1 0
vt 0 1
vt 1 1
vt 0 1
vt 1 1
vt 0 1
vt 1 1
vt 0 0
vt 1 0
vt 0 0
vt 1 0
vt 0 0
vt 0 1
vt 1 1
vt 1 0
vt 0 0
vt 0 1
vt 1 1
vt 1 0
vt 0 0
vt 0 1
vt 1 1
vt 1 0
f 554 557 556
f 554 555 557
f 562 559 558
f 562 563 559
f 564 561 560
f 564 565 561
f 566 568 567
f 566 569 568
f 570 572 571
f 570 573 572
f 574 576 575
f 574 577 576
g Obstacle_19
v -23.07107 0 -4.350529
v -21.07107 0 -4.350529
v -23.07107 2 -4.350529
v -21.07107 2 -4.350529
v -23.07107 2 -6.350529
v -21.07107 2 -6.350529
v -23.07107 0 -6.350529
v -21.07107 0 -6.350529
v -23.07107 2 -4.350529
v -21.07107 2 -4.350529
v -23.07107 2 -6.350529
v -21.07107 2 -6.350529
v -23.07107 0 -6.350529
v -23.07107 0 -4.350529
v -21.07107 0 -4.350529
v -21.07107 0 -6.350529
v -21.07107 0 -4.350529
v -21.07107 2 -4.350529
v -21.07107 2 -6.350529
v -21.07107 0 -6.350529
v -23.07107 0 -6.350529
v -23.07107 2 -6.350529
v -23.07107 2 -4.350529
v -23.07107 0 -4.350529

vn -8.742278E-08 0 1
vn -8.742278E-08 0 1
vn -8.742278E-08 0 1
vn -8.742278E-08 0 1
vn 0 1 0
vn 0 1 0
vn 8.742278E-08 0 -1
vn 8.742278E-08 0 -1
vn 0 1 0
vn 0 1 0
vn 8.742278E-08 0 -1
vn 8.742278E-08 0 -1
vn 0 -1 0
vn 0 -1 0
vn 0 -1 0
vn 0 -1 0
vn 1 0 8.742278E-08
vn 1 0 8.742278E-08
vn 1 0 8.742278E-08
vn 1 0 8.742278E-08
vn -1 0 -8.742278E-08
vn -1 0 -8.742278E-08
vn -1 0 -8.742278E-08
vn -1 0 -8.742278E-08

vt 0 0
vt 1 0
vt 0 1
vt 1 1
vt 0 1
vt 1 1
vt 0 1
vt 1 1
vt 0 0
vt 1 0
vt 0 0
vt 1 0
vt 0 0
vt 0 1
vt 1 1
vt 1 0
vt 0 0
vt 0 1
vt 1 1
vt 1 0
vt 0 0
vt 0 1
vt 1 1
vt 1 0
f 578 581 580
f 578 579 581
f 586 583 582
f 586 587 583
f 588 585 584
f 588 589 585
f 590 592 591
f 590 593 592
f 594 596 595
f 594 597 596
f 598 600 599
f 598 601 600
g Ramp_0
v -13.47233 1 11.75885
v -17.47233 1 11.75885
v -17.47233 3 15.75885
v -13.47233 3 15.75885

vn -3.909665E-08 -0.8944272 0.4472136
vn -3.909665E-08 -0.8944272 0.4472136
vn -3.909665E-08 -0.8944272 0.4472136
vn -3.909665E-08 -0.8944272 0.4472136

vt 0 0
vt 1 0
vt 1 1
vt 0 1
f 602 604 603
f 602 605 604
g Ramp_1
v -13.32399 1 -13.36337
v -17.32399 1 -13.36337
v -17.32399 3 -9.363375
v -13.32399 3 -9.363374

vn -3.909665E-08 -0.8944272 0.4472136
vn -3.909665E-08 -0.8944272 0.4472136
vn -3.909665E-08 -0.8944272 0.4472136
vn -3.909665E-08 -0.8944272 0.4472136

vt 0 0
vt 1 0
vt 1 1
vt 0 1
f 606 608 607
f 606 609 608
g Ramp_2
v 5.774697 1 -26.53198
v 1.774697 1 -26.53198
v 1.774696 3 -22.53198
v 5.774696 3 -22.53198

vn -3.909665E-08 -0.8944272 0.4472136
vn -3.909665E-08 -0.8944272 0.4472136
vn -3.909665E-08 -0.8944272 0.4472136
vn -3.909665E-08 -0.8944272 0.4472136

vt 0 0
vt 1 0
vt 1 1
vt 0 1
f 610 612 611
f 610 613 612
g Ramp_3
v -22.98817 1 12.40177
v -26.98817 1 12.40177
v -26.98817 3 16.40177
v -22.98817 3 16.40177

vn -3.909665E-08 -0.8944272 0.4472136
vn -3.909665E-08 -0.8944272 0.4472136
vn -3.909665E-08 -0.8944272 0.4472136
vn -3.909665E-08 -0.8944272 0.4472136

vt 0 0
vt 1 0
vt 1 1
vt 0 1
f 614 616 615
f 614 617 616
g Ramp_4
v 19.13403 1 10.43771
v 15.13403 1 10.43771
v 15.13403 3 14.43771
v 19.13403 3 14.43771

vn -3.909665E-08 -0.8944272 0.4472136
vn -3.909665E-08 -0.8944272 0.4472136
vn -3.909665E-08 -0.8944272 0.4472136
vn -3.909665E-08 -0.8944272 0.4472136

vt 0 0
vt 1 0
vt 1 1
vt 0 1
f 618 620 619
f 618 621 620
g MazeWall_0_0
v 15.25 0 -19.75
v 24.75 0 -19.75
v 15.25 3 -19.75
v 24.75 3 -19.75
v 15.25 3 -20.25
v 24.75 3 -20.25
v 15.25 0 -20.25
v 24.75 0 -20.25
v 15.25 3 -19.75
v 24.75 3 -19.75
v 15.25 3 -20.25
v 24.75 3 -20.25
v 15.25 0 -20.25
v 15.25 0 -19.75
v 24.75 0 -19.75
v 24.75 0 -20.25
v 24.75 0 -19.75
v 24.75 3 -19.75
v 24.75 3 -20.25
v 24.75 0 -20.25
v 15.25 0 -20.25
v 15.25 3 -20.25
v 15.25 3 -19.75
v 15.25 0 -19.75

vn -8.742278E-08 0 1
vn -8.742278E-08 0 1
vn -8.742278E-08 0 1
vn -8.742278E-08 0 1
vn 0 1 0
vn 0 1 0
vn 8.742278E-08 0 -1
vn 8.742278E-08 0 -1
vn 0 1 0
vn 0 1 0
vn 8.742278E-08 0 -1
vn 8.742278E-08 0 -1
vn 0 -1 0
vn 0 -1 0
vn 0 -1 0
vn 0 -1 0
vn 1 0 8.742278E-08
vn 1 0 8.742278E-08
vn 1 0 8.742278E-08
vn 1 0 8.742278E-08
vn -1 0 -8.742278E-08
vn -1 0 -8.742278E-08
vn -1 0 -8.742278E-08
vn -1 0 -8.742278E-08

vt 0 0
vt 1 0
vt 0 1
vt 1 1
vt 0 1
vt 1 1
vt 0 1
vt 1 1
vt 0 0
vt 1 0
vt 0 0
vt 1 0
vt 0 0
vt 0 1
vt 1 1
vt 1 0
vt 0 0
vt 0 1
vt 1 1
vt 1 0
vt 0 0
vt 0 1
vt 1 1
vt 1 0
f 622 625 624
f 622 623 625
f 630 627 626
f 630 631 627
f 632 629 628
f 632 633 629
f 634 636 635
f 634 637 636
f 638 640 639
f 638 641 640
f 642 644 643
f 642 645 644
g MazeWall_1_0
v 5.250002 0 -19.75
v 14.75 0 -19.75
v 5.250002 3 -19.75
v 14.75 3 -19.75
v 5.250002 3 -20.25
v 14.75 3 -20.25
v 5.250002 0 -20.25
v 14.75 0 -20.25
v 5.250002 3 -19.75
v 14.75 3 -19.75
v 5.250002 3 -20.25
v 14.75 3 -20.25
v 5.250002 0 -20.25
v 5.250002 0 -19.75
v 14.75 0 -19.75
v 14.75 0 -20.25
v 14.75 0 -19.75
v 14.75 3 -19.75
v 14.75 3 -20.25
v 14.75 0 -20.25
v 5.250002 0 -20.25
v 5.250002 3 -20.25
v 5.250002 3 -19.75
v 5.250002 0 -19.75

vn -8.742278E-08 0 1
vn -8.742278E-08 0 1
vn -8.742278E-08 0 1
vn -8.742278E-08 0 1
vn 0 1 0
vn 0 1 0
vn 8.742278E-08 0 -1
vn 8.742278E-08 0 -1
vn 0 1 0
vn 0 1 0
vn 8.742278E-08 0 -1
vn 8.742278E-08 0 -1
vn 0 -1 0
vn 0 -1 0
vn 0 -1 0
vn 0 -1 0
vn 1 0 8.742278E-08
vn 1 0 8.742278E-08
vn 1 0 8.742278E-08
vn 1 0 8.742278E-08
vn -1 0 -8.742278E-08
vn -1 0 -8.742278E-08
vn -1 0 -8.742278E-08
vn -1 0 -8.742278E-08

vt 0 0
vt 1 0
vt 0 1
vt 1 1
vt 0 1
vt 1 1
vt 0 1
vt 1 1
vt 0 0
vt 1 0
vt 0 0
vt 1 0
vt 0 0
vt 0 1
vt 1 1
vt 1 0
vt 0 0
vt 0 1
vt 1 1
vt 1 0
vt 0 0
vt 0 1
vt 1 1
vt 1 0
f 646 649 648
f 646 647 649
f 654 651 650
f 654 655 651
f 656 653 652
f 656 657 653
f 658 660 659
f 658 661 660
f 662 664 663
f 662 665 664
f 666 668 667
f 666 669 668
g MazeWall_1_1
v 5.250001 0 -9.75
v 14.75 0 -9.749999
v 5.250001 3 -9.75
v 14.75 3 -9.749999
v 5.250001 3 -10.25
v 14.75 3 -10.25
v 5.250001 0 -10.25
v 14.75 0 -10.25
v 5.250001 3 -9.75
v 14.75 3 -9.749999
v 5.250001 3 -10.25
v 14.75 3 -10.25
v 5.250001 0 -10.25
v 5.250001 0 -9.75
v 14.75 0 -9.749999
v 14.75 0 -10.25
v 14.75 0 -9.749999
v 14.75 3 -9.749999
v 14.75 3 -10.25
v 14.75 0 -10.25
v 5.250001 0 -10.25
v 5.250001 3 -10.25
v 5.250001 3 -9.75
v 5.250001 0 -9.75

vn -8.742278E-08 0 1
vn -8.742278E-08 0 1
vn -8.742278E-08 0 1
vn -8.742278E-08 0 1
vn 0 1 0
vn 0 1 0
vn 8.742278E-08 0 -1
vn 8.742278E-08 0 -1
vn 0 1 0
vn 0 1 0
vn 8.742278E-08 0 -1
vn 8.742278E-08 0 -1
vn 0 -1 0
vn 0 -1 0
vn 0 -1 0
vn 0 -1 0
vn 1 0 8.742278E-08
vn 1 0 8.742278E-08
vn 1 0 8.742278E-08
vn 1 0 8.742278E-08
vn -1 0 -8.742278E-08
vn -1 0 -8.742278E-08
vn -1 0 -8.742278E-08
vn -1 0 -8.742278E-08

vt 0 0
vt 1 0
vt 0 1
vt 1 1
vt 0 1
vt 1 1
vt 0 1
vt 1 1
vt 0 0
vt 1 0
vt 0 0
vt 1 0
vt 0 0
vt 0 1
vt 1 1
vt 1 0
vt 0 0
vt 0 1
vt 1 1
vt 1 0
vt 0 0
vt 0 1
vt 1 1
vt 1 0
f 670 673 672
f 670 671 673
f 678 675 674
f 678 679 675
f 680 677 676
f 680 681 677
f 682 684 683
f 682 685 684
f 686 688 687
f 686 689 688
f 690 692 691
f 690 693 692
g MazeWall_1_4
v 5.249998 0 20.25
v 14.75 0 20.25
v 5.249998 3 20.25
v 14.75 3 20.25
v 5.249998 3 19.75
v 14.75 3 19.75
v 5.249998 0 19.75
v 14.75 0 19.75
v 5.249998 3 20.25
v 14.75 3 20.25
v 5.249998 3 19.75
v 14.75 3 19.75
v 5.249998 0 19.75
v 5.249998 0 20.25
v 14.75 0 20.25
v 14.75 0 19.75
v 14.75 0 20.25
v 14.75 3 20.25
v 14.75 3 19.75
v 14.75 0 19.75
v 5.249998 0 19.75
v 5.249998 3 19.75
v 5.249998 3 20.25
v 5.249998 0 20.25

vn -8.742278E-08 0 1
vn -8.742278E-08 0 1
vn -8.742278E-08 0 1
vn -8.742278E-08 0 1
vn 0 1 0
vn 0 1 0
vn 8.742278E-08 0 -1
vn 8.742278E-08 0 -1
vn 0 1 0
vn 0 1 0
vn 8.742278E-08 0 -1
vn 8.742278E-08 0 -1
vn 0 -1 0
vn 0 -1 0
vn 0 -1 0
vn 0 -1 0
vn 1 0 8.742278E-08
vn 1 0 8.742278E-08
vn 1 0 8.742278E-08
vn 1 0 8.742278E-08
vn -1 0 -8.742278E-08
vn -1 0 -8.742278E-08
vn -1 0 -8.742278E-08
vn -1 0 -8.742278E-08

vt 0 0
vt 1 0
vt 0 1
vt 1 1
vt 0 1
vt 1 1
vt 0 1
vt 1 1
vt 0 0
vt 1 0
vt 0 0
vt 1 0
vt 0 0
vt 0 1
vt 1 1
vt 1 0
vt 0 0
vt 0 1
vt 1 1
vt 1 0
vt 0 0
vt 0 1
vt 1 1
vt 1 0
f 694 697 696
f 694 695 697
f 702 699 698
f 702 703 699
f 704 701 700
f 704 705 701
f 706 708 707
f 706 709 708
f 710 712 711
f 710 713 712
f 714 716 715
f 714 717 716
g MazeWall_2_1
v -4.749999 0 -9.75
v 4.750001 0 -9.75
v -4.749999 3 -9.75
v 4.750001 3 -9.75
v -4.749999 3 -10.25
v 4.750001 3 -10.25
v -4.749999 0 -10.25
v 4.750001 0 -10.25
v -4.749999 3 -9.75
v 4.750001 3 -9.75
v -4.749999 3 -10.25
v 4.750001 3 -10.25
v -4.749999 0 -10.25
v -4.749999 0 -9.75
v 4.750001 0 -9.75
v 4.750001 0 -10.25
v 4.750001 0 -9.75
v 4.750001 3 -9.75
v 4.750001 3 -10.25
v 4.750001 0 -10.25
v -4.749999 0 -10.25
v -4.749999 3 -10.25
v -4.749999 3 -9.75
v -4.749999 0 -9.75

vn -8.742278E-08 0 1
vn -8.742278E-08 0 1
vn -8.742278E-08 0 1
vn -8.742278E-08 0 1
vn 0 1 0
vn 0 1 0
vn 8.742278E-08 0 -1
vn 8.742278E-08 0 -1
vn 0 1 0
vn 0 1 0
vn 8.742278E-08 0 -1
vn 8.742278E-08 0 -1
vn 0 -1 0
vn 0 -1 0
vn 0 -1 0
vn 0 -1 0
vn 1 0 8.742278E-08
vn 1 0 8.742278E-08
vn 1 0 8.742278E-08
vn 1 0 8.742278E-08
vn -1 0 -8.742278E-08
vn -1 0 -8.742278E-08
vn -1 0 -8.742278E-08
vn -1 0 -8.742278E-08

vt 0 0
vt 1 0
vt 0 1
vt 1 1
vt 0 1
vt 1 1
vt 0 1
vt 1 1
vt 0 0
vt 1 0
vt 0 0
vt 1 0
vt 0 0
vt 0 1
vt 1 1
vt 1 0
vt 0 0
vt 0 1
vt 1 1
vt 1 0
vt 0 0
vt 0 1
vt 1 1
vt 1 0
f 718 721 720
f 718 719 721
f 726 723 722
f 726 727 723
f 728 725 724
f 728 729 725
f 730 732 731
f 730 733 732
f 734 736 735
f 734 737 736
f 738 740 739
f 738 741 740
g MazeWall_3_1
v -14.75 0 -9.750001
v -5.249999 0 -9.75
v -14.75 3 -9.750001
v -5.249999 3 -9.75
v -14.75 3 -10.25
v -5.249999 3 -10.25
v -14.75 0 -10.25
v -5.249999 0 -10.25
v -14.75 3 -9.750001
v -5.249999 3 -9.75
v -14.75 3 -10.25
v -5.249999 3 -10.25
v -14.75 0 -10.25
v -14.75 0 -9.750001
v -5.249999 0 -9.75
v -5.249999 0 -10.25
v -5.249999 0 -9.75
v -5.249999 3 -9.75
v -5.249999 3 -10.25
v -5.249999 0 -10.25
v -14.75 0 -10.25
v -14.75 3 -10.25
v -14.75 3 -9.750001
v -14.75 0 -9.750001

vn -8.742278E-08 0 1
vn -8.742278E-08 0 1
vn -8.742278E-08 0 1
vn -8.742278E-08 0 1
vn 0 1 0
vn 0 1 0
vn 8.742278E-08 0 -1
vn 8.742278E-08 0 -1
vn 0 1 0
vn 0 1 0
vn 8.742278E-08 0 -1
vn 8.742278E-08 0 -1
vn 0 -1 0
vn 0 -1 0
vn 0 -1 0
vn 0 -1 0
vn 1 0 8.742278E-08
vn 1 0 8.742278E-08
vn 1 0 8.742278E-08
vn 1 0 8.742278E-08
vn -1 0 -8.742278E-08
vn -1 0 -8.742278E-08
vn -1 0 -8.742278E-08
vn -1 0 -8.742278E-08

vt 0 0
vt 1 0
vt 0 1
vt 1 1
vt 0 1
vt 1 1
vt 0 1
vt 1 1
vt 0 0
vt 1 0
vt 0 0
vt 1 0
vt 0 0
vt 0 1
vt 1 1
vt 1 0
vt 0 0
vt 0 1
vt 1 1
vt 1 0
vt 0 0
vt 0 1
vt 1 1
vt 1 0
f 742 745 744
f 742 743 745
f 750 747 746
f 750 751 747
f 752 749 748
f 752 753 749
f 754 756 755
f 754 757 756
f 758 760 759
f 758 761 760
f 762 764 763
f 762 765 764
g MazeWall_3_2
v -14.75 0 0.2499987
v -5.25 0 0.2499995
v -14.75 3 0.2499987
v -5.25 3 0.2499995
v -14.75 3 -0.2500013
v -5.25 3 -0.2500004
v -14.75 0 -0.2500013
v -5.25 0 -0.2500004
v -14.75 3 0.2499987
v -5.25 3 0.2499995
v -14.75 3 -0.2500013
v -5.25 3 -0.2500004
v -14.75 0 -0.2500013
v -14.75 0 0.2499987
v -5.25 0 0.2499995
v -5.25 0 -0.2500004
v -5.25 0 0.2499995
v -5.25 3 0.2499995
v -5.25 3 -0.2500004
v -5.25 0 -0.2500004
v -14.75 0 -0.2500013
v -14.75 3 -0.2500013
v -14.75 3 0.2499987
v -14.75 0 0.2499987

vn -8.742278E-08 0 1
vn -8.742278E-08 0 1
vn -8.742278E-08 0 1
vn -8.742278E-08 0 1
vn 0 1 0
vn 0 1 0
vn 8.742278E-08 0 -1
vn 8.742278E-08 0 -1
vn 0 1 0
vn 0 1 0
vn 8.742278E-08 0 -1
vn 8.742278E-08 0 -1
vn 0 -1 0
vn 0 -1 0
vn 0 -1 0
vn 0 -1 0
vn 1 0 8.742278E-08
vn 1 0 8.742278E-08
vn 1 0 8.742278E-08
vn 1 0 8.742278E-08
vn -1 0 -8.742278E-08
vn -1 0 -8.742278E-08
vn -1 0 -8.742278E-08
vn -1 0 -8.742278E-08

vt 0 0
vt 1 0
vt 0 1
vt 1 1
vt 0 1
vt 1 1
vt 0 1
vt 1 1
vt 0 0
vt 1 0
vt 0 0
vt 1 0
vt 0 0
vt 0 1
vt 1 1
vt 1 0
vt 0 0
vt 0 1
vt 1 1
vt 1 0
vt 0 0
vt 0 1
vt 1 1
vt 1 0
f 766 769 768
f 766 767 769
f 774 771 770
f 774 775 771
f 776 773 772
f 776 777 773
f 778 780 779
f 778 781 780
f 782 784 783
f 782 785 784
f 786 788 787
f 786 789 788
g MazeWall_3_4
v -14.75 0 20.25
v -5.250002 0 20.25
v -14.75 3 20.25
v -5.250002 3 20.25
v -14.75 3 19.75
v -5.250002 3 19.75
v -14.75 0 19.75
v -5.250002 0 19.75
v -14.75 3 20.25
v -5.250002 3 20.25
v -14.75 3 19.75
v -5.250002 3 19.75
v -14.75 0 19.75
v -14.75 0 20.25
v -5.250002 0 20.25
v -5.250002 0 19.75
v -5.250002 0 20.25
v -5.250002 3 20.25
v -5.250002 3 19.75
v -5.250002 0 19.75
v -14.75 0 19.75
v -14.75 3 19.75
v -14.75 3 20.25
v -14.75 0 20.25

vn -8.742278E-08 0 1
vn -8.742278E-08 0 1
vn -8.742278E-08 0 1
vn -8.742278E-08 0 1
vn 0 1 0
vn 0 1 0
vn 8.742278E-08 0 -1
vn 8.742278E-08 0 -1
vn 0 1 0
vn 0 1 0
vn 8.742278E-08 0 -1
vn 8.742278E-08 0 -1
vn 0 -1 0
vn 0 -1 0
vn 0 -1 0
vn 0 -1 0
vn 1 0 8.742278E-08
vn 1 0 8.742278E-08
vn 1 0 8.742278E-08
vn 1 0 8.742278E-08
vn -1 0 -8.742278E-08
vn -1 0 -8.742278E-08
vn -1 0 -8.742278E-08
vn -1 0 -8.742278E-08

vt 0 0
vt 1 0
vt 0 1
vt 1 1
vt 0 1
vt 1 1
vt 0 1
vt 1 1
vt 0 0
vt 1 0
vt 0 0
vt 1 0
vt 0 0
vt 0 1
vt 1 1
vt 1 0
vt 0 0
vt 0 1
vt 1 1
vt 1 0
vt 0 0
vt 0 1
vt 1 1
vt 1 0
f 790 793 792
f 790 791 793
f 798 795 794
f 798 799 795
f 800 797 796
f 800 801 797
f 802 804 803
f 802 805 804
f 806 808 807
f 806 809 808
f 810 812 811
f 810 813 812
g MazeWall_4_0
v -24.75 0 -19.75
v -15.25 0 -19.75
v -24.75 3 -19.75
v -15.25 3 -19.75
v -24.75 3 -20.25
v -15.25 3 -20.25
v -24.75 0 -20.25
v -15.25 0 -20.25
v -24.75 3 -19.75
v -15.25 3 -19.75
v -24.75 3 -20.25
v -15.25 3 -20.25
v -24.75 0 -20.25
v -24.75 0 -19.75
v -15.25 0 -19.75
v -15.25 0 -20.25
v -15.25 0 -19.75
v -15.25 3 -19.75
v -15.25 3 -20.25
v -15.25 0 -20.25
v -24.75 0 -20.25
v -24.75 3 -20.25
v -24.75 3 -19.75
v -24.75 0 -19.75

vn -8.742278E-08 0 1
vn -8.742278E-08 0 1
vn -8.742278E-08 0 1
vn -8.742278E-08 0 1
vn 0 1 0
vn 0 1 0
vn 8.742278E-08 0 -1
vn 8.742278E-08 0 -1
vn 0 1 0
vn 0 1 0
vn 8.742278E-08 0 -1
vn 8.742278E-08 0 -1
vn 0 -1 0
vn 0 -1 0
vn 0 -1 0
vn 0 -1 0
vn 1 0 8.742278E-08
vn 1 0 8.742278E-08
vn 1 0 8.742278E-08
vn 1 0 8.742278E-08
vn -1 0 -8.742278E-08
vn -1 0 -8.742278E-08
vn -1 0 -8.742278E-08
vn -1 0 -8.742278E-08

vt 0 0
vt 1 0
vt 0 1
vt 1 1
vt 0 1
vt 1 1
vt 0 1
vt 1 1
vt 0 0
vt 1 0
vt 0 0
vt 1 0
vt 0 0
vt 0 1
vt 1 1
vt 1 0
vt 0 0
vt 0 1
vt 1 1
vt 1 0
vt 0 0
vt 0 1
vt 1 1
vt 1 0
f 814 817 816
f 814 815 817
f 822 819 818
f 822 823 819
f 824 821 820
f 824 825 821
f 826 828 827
f 826 829 828
f 830 832 831
f 830 833 832
f 834 836 835
f 834 837 836
g MazeWall_4_2
v -24.75 0 0.2499978
v -15.25 0 0.2499987
v -24.75 3 0.2499978
v -15.25 3 0.2499987
v -24.75 3 -0.2500022
v -15.25 3 -0.2500013
v -24.75 0 -0.2500022
v -15.25 0 -0.2500013
v -24.75 3 0.2499978
v -15.25 3 0.2499987
v -24.75 3 -0.2500022
v -15.25 3 -0.2500013
v -24.75 0 -0.2500022
v -24.75 0 0.2499978
v -15.25 0 0.2499987
v -15.25 0 -0.2500013
v -15.25 0 0.2499987
v -15.25 3 0.2499987
v -15.25 3 -0.2500013
v -15.25 0 -0.2500013
v -24.75 0 -0.2500022
v -24.75 3 -0.2500022
v -24.75 3 0.2499978
v -24.75 0 0.2499978

vn -8.742278E-08 0 1
vn -8.742278E-08 0 1
vn -8.742278E-08 0 1
vn -8.742278E-08 0 1
vn 0 1 0
vn 0 1 0
vn 8.742278E-08 0 -1
vn 8.742278E-08 0 -1
vn 0 1 0
vn 0 1 0
vn 8.742278E-08 0 -1
vn 8.742278E-08 0 -1
vn 0 -1 0
vn 0 -1 0
vn 0 -1 0
vn 0 -1 0
vn 1 0 8.742278E-08
vn 1 0 8.742278E-08
vn 1 0 8.742278E-08
vn 1 0 8.742278E-08
vn -1 0 -8.742278E-08
vn -1 0 -8.742278E-08
vn -1 0 -8.742278E-08
vn -1 0 -8.742278E-08

vt 0 0
vt 1 0
vt 0 1
vt 1 1
vt 0 1
vt 1 1
vt 0 1
vt 1 1
vt 0 0
vt 1 0
vt 0 0
vt 1 0
vt 0 0
vt 0 1
vt 1 1
vt 1 0
vt 0 0
vt 0 1
vt 1 1
vt 1 0
vt 0 0
vt 0 1
vt 1 1
vt 1 0
f 838 841 840
f 838 839 841
f 846 843 842
f 846 847 843
f 848 845 844
f 848 849 845
f 850 852 851
f 850 853 852
f 854 856 855
f 854 857 856
f 858 860 859
f 858 861 860
